<svg xmlns="http://www.w3.org/2000/svg" fill="none" viewBox="0 0 600 600" id="Collaboration--Streamline-Brooklyn" height="600" width="600">
  <desc>
    Collaboration Streamline Illustration: https://streamlinehq.com
  </desc>
  <g id="collaboration--work-collaboration-job-office">
    <g id="board_1_">
      <path id="Vector" fill="#3849f5" d="M229.401 63.727199999999996c0 -2.7 2.1006 0.00030000000000000003 44.1006 -2.0997 3.3000000000000003 -0.30000000000000004 1.4994 1.7999999999999998 2.3994 7.5 0.8999999999999999 4.800000000000001 -7.1994 3.2997000000000005 -19.7994 3.5997 -30 0.8999999999999999 -26.7006 2.0999999999999996 -26.7006 -9Z" stroke-width="3"></path>
      <path id="Vector_2" fill="#3849f5" d="M237.801 265.9275c-0.30000000000000004 -34.5 -1.7997 -33.899699999999996 3.3003 -34.1997 16.200000000000003 -0.8999999999999999 16.5 -0.30000000000000004 16.5 -3 -0.6000000000000001 -40.2 -1.8003 -40.8003 2.6997 -40.8003 36.900000000000006 -0.6000000000000001 38.400000000000006 -1.1997 38.099999999999994 0.3003 0 0.8999999999999999 -0.5997 0.8999999999999999 -1.1997 0.8999999999999999 -25.5 2.0999999999999996 -38.099999999999994 -1.5003 -38.099999999999994 3.2997000000000005 0.8999999999999999 38.7 -1.5003 38.7 3.2997000000000005 38.400000000000006 24.900000000000002 -0.8999999999999999 25.800599999999996 -1.4997 26.1006 2.4003 0.30000000000000004 3 0.5997 30 0.5997 33 0 4.800000000000001 0.5997 3.2994000000000003 -25.2003 3.2994000000000003v-0.2994c-26.400000000000002 0.30000000000000004 -26.099999999999998 1.7997 -26.099999999999998 -3.3003Zm46.5 2.0997c4.199999999999999 0 2.7 0 2.0999999999999996 -33 0 -3 -0.30000000000000004 -1.7999999999999998 -18 -1.5 -29.400000000000002 0.30000000000000004 -29.3994 -0.8994 -29.3994 2.1006 1.7999999999999998 31.799999999999997 -0.8999999999999999 32.099999999999994 3 32.099999999999994 7.5 0 34.4994 -0.0006000000000000001 42.2994 0.2994Z" stroke-width="3"></path>
      <path id="Vector_3" fill="#3849f5" d="M142.401 123.1275c0 -13.799999999999999 -0.2997 -15 0.9002999999999999 -15 0.8999999999999999 0 1.2000000000000002 0 0.8999999999999999 13.5 0 3.9000000000000004 0.8999999999999999 0.5994 48.599999999999994 0.8994 4.5 0 2.6997 0.30000000000000004 3.5997 -13.5 0.30000000000000004 -3.9000000000000004 1.5003 -2.4000000000000004 -50.0997 -1.5 -1.2000000000000002 0 -3.2997000000000005 0.9002999999999999 -3.2997000000000005 -1.1997 0 -1.5 2.0997 -1.1997 3.2997000000000005 -1.1997 52.800000000000004 -1.2000000000000002 52.800000000000004 -2.7006 52.5 1.7993999999999999 -0.30000000000000004 16.799999999999997 1.4997 18 -2.4003 18 -54 1.2000000000000002 -54 1.8005999999999998 -54 -1.7993999999999999Z" stroke-width="3"></path>
      <path id="Vector_4" fill="#3849f5" d="M302.301 156.1275c0 -1.5 -1.7999999999999998 -1.5 -1.7999999999999998 0 -0.30000000000000004 2.7 -0.30000000000000004 39.899699999999996 0.6000000000000001 61.19969999999999 0 3.5999999999999996 0.6000000000000001 4.1997 3.9000000000000004 4.1997 22.845 0.0885 40.332 -0.18869999999999998 51.251999999999995 -0.5852999999999999l0.654 -1.755c-10.227 -0.1749 -27.048000000000002 -0.1521 -51.306 0.2403 -2.4000000000000004 0 -1.7999999999999998 0 -2.0999999999999996 -24 -0.30000000000000004 -11.399999999999999 -0.30000000000000004 -29.3994 -1.2000000000000002 -39.2994Z" stroke-width="3"></path>
      <path id="Vector_5" fill="#3849f5" d="M370.101 154.32690000000002c-0.30000000000000004 -3.9000000000000004 -0.8999999999999999 -2.9997 -27.599999999999998 -2.6997 -14.399999999999999 0.30000000000000004 -30.900000000000002 0.2997 -35.400000000000006 1.1997 -1.5 0 -1.5 1.8003 0 1.8003 9.600000000000001 0.30000000000000004 44.400000000000006 -0.3006 58.5 -0.6006 1.7999999999999998 0 2.4000000000000004 0.6003000000000001 2.4000000000000004 2.4003 -0.255 17.6841 -0.249 30.737099999999998 -0.08700000000000001 39.9804l3.258 -3.8427c0.201 -11.1051 -0.024 -24.9417 -1.071 -38.237700000000004Z" stroke-width="3"></path>
      <path id="Vector_6" fill="#3849f5" d="M276.20099999999996 110.52690000000001c0 -2.4000000000000004 55.5 -2.9997 72.30000000000001 -4.1997 1.2000000000000002 0 3.5999999999999996 -0.9002999999999999 3.5999999999999996 1.1997 0 2.4000000000000004 0 0.9002999999999999 -68.4 4.2002999999999995 -0.30000000000000004 -0.6000000000000001 -7.5 0.8996999999999999 -7.5 -1.2003Z" stroke-width="3"></path>
      <path id="Vector_7" fill="#3849f5" d="M276.801 128.2269c0 -2.7 40.2 -1.7997 69.30000000000001 -3.5997 1.2000000000000002 0 2.7 -0.3003 2.7 1.1997s-1.2000000000000002 1.1997 -2.4000000000000004 1.1997c-39.3 0.8999999999999999 -69.6 3.9003 -69.6 1.2003Z" stroke-width="3"></path>
      <path id="Vector_8" fill="#3849f5" d="M286.1013 120.42689999999999c-7.800000000000001 0.30000000000000004 -9 0.3003 -9 -1.1997 0 -0.8999999999999999 0.5997 -1.2000000000000002 8.0997 -1.5 57.599999999999994 -1.7999999999999998 54.300000000000004 -2.3997 54.300000000000004 -0.5997 -0.30000000000000004 2.4000000000000004 -0.30000000000000004 2.0994 -53.3997 3.2994000000000003Z" stroke-width="3"></path>
      <path id="Vector_9" fill="#3849f5" d="m327.501 262.9275 -22.5 0c-1.5 0 -2.4000000000000004 -1.5 -0.30000000000000004 -2.0999999999999996 3 -0.6000000000000001 0 -0.5997 44.7 -0.5997 0.8999999999999999 0 2.0999999999999996 -0.3003 2.0999999999999996 1.1997 0.30000000000000004 3 -24 0.6000000000000001 -24 1.5Z" stroke-width="3"></path>
      <path id="Vector_10" fill="#3849f5" d="M339.501 268.9278c0.6000000000000001 0 1.5 0 1.7999999999999998 0.8999999999999999 0 1.2000000000000002 -0.8999999999999999 0.8996999999999999 -1.7999999999999998 1.1997 -29.700000000000003 2.7 -37.5 -4.4997 0 -2.0997Z" stroke-width="3"></path>
      <g id="Group">
        <path id="Subtract" fill="#3849f5" fill-rule="evenodd" d="M458.301 76.3269c-4.800000000000001 -13.799999999999999 -18 -16.5 -32.7 -16.799999999999997 -7.199999999999999 -0.30000000000000004 -107.69999999999999 1.5 -114.89999999999999 1.7999999999999998 -10.041 0.2844 -16.9116 0.2994 -21.6033 0.3096 -7.131600000000001 0.0156 -9.2289 0.0201 -9.7746 0.9425999999999999 -0.22740000000000002 0.384 -0.1854 0.9276 -0.126 1.6974l0.0039 0.0504c0.026999999999999996 0.3258 0.05399999999999999 0.6423000000000001 0.0804 0.9501 0.3291 3.8646000000000003 0.5403 6.3417 -0.5481 7.9254 -1.9427999999999999 2.8269 -8.0259 2.8080000000000003 -24.9666 2.7555 -6.238200000000001 -0.019200000000000002 -13.9482 -0.0432 -23.466 0.069 -2.0999999999999996 0 -2.9994 -0.8999999999999999 -3.2994000000000003 -3 -0.6039 -3.1395 -0.5274000000000001 -5.3553 -0.4746 -6.8826 0.07830000000000001 -2.2674000000000003 0.10439999999999999 -3.0171 -2.226 -3.0171 -33.9105 1.008 -61.5315 1.2039 -83.9787 1.3632 -71.08709999999999 0.504 -90.28529999999999 0.6398999999999999 -93.0213 25.036499999999997 -1.4424000000000001 11.8278 0.7215 106.0479 1.4232 116.4639 0.9402 -0.6939 1.9020000000000001 -1.3824 2.8853999999999997 -2.0646 -0.0426 -2.3286 -0.0771 -4.1115 -0.10799999999999998 -5.199 -0.7296 -30.8055 -1.3716 -52.8705 -1.8315000000000001 -68.6694 -0.9855 -33.87 -1.1328 -38.94 0.4908 -39.590999999999994 0.2859 -0.1146 0.6267 -0.0921 1.0275 -0.0657 0.1905 0.012300000000000002 0.3945 0.0258 0.6126 0.0258 18.6531 0.261 97.4811 -1.917 180.6789 -4.2156l0.00030000000000000003 0 0.00030000000000000003 0c108.1488 -2.9877000000000002 223.68179999999998 -6.1796999999999995 224.02079999999998 -4.4841 0.078 0.0789 0.6990000000000001 13.775400000000001 1.395 34.0401 1.362 1.4853 2.559 3.0945 3.591 4.7985 -1.146 -24.2487 -2.412 -41.917500000000004 -3.186 -44.2389Zm-84.93299999999999 219.012c-0.051000000000000004 -0.8304 -0.056999999999999995 -2.0262000000000002 -0.024 -3.4515000000000002 -11.589 0.1047 -24.852000000000004 0.1986 -40.05 0.3063 -36.1926 0.2562 -83.3526 0.5904 -144.9933 1.3329 -4.6467 0.0567 -11.829899999999999 0.306 -20.4927 0.6087 0.0345 0.9302999999999999 0.0642 1.8369 0.0855 2.718 51.486599999999996 -1.5198 120.1002 -3.3669000000000002 204.90749999999997 -1.5264000000000002 0.183 0.0039 0.369 0.0078 0.567 0.012Z" clip-rule="evenodd" stroke-width="3"></path>
      </g>
    </g>
    <g id="Group_2">
      <path id="Subtract_2" fill="#3849f5" fill-rule="evenodd" d="M475.899 493.164c-15.993000000000002 -0.042 -33.177 -0.07200000000000001 -51.159000000000006 -0.093 -0.051000000000000004 0.5609999999999999 -0.43499999999999994 1.596 -1.116 2.895 17.121 -0.063 33.495 -0.132 48.777 -0.198 1.137 -0.8190000000000001 2.3040000000000003 -1.6860000000000002 3.4979999999999998 -2.604Zm28.239 2.457c0.384 -0.9930000000000001 0.471 -1.809 0.22199999999999998 -2.367 37.749 0.14400000000000002 65.511 0.363 76.041 0.672 5.699999999999999 0.30000000000000004 6.300000000000001 0.8999999999999999 0.6000000000000001 1.2000000000000002 -0.44099999999999995 0.07500000000000001 -30.741 0.273 -76.863 0.495Zm-323.8686 -2.331c65.95230000000001 -0.189 144.8226 -0.28500000000000003 215.3526 -0.243l-0.6060000000000001 0.45299999999999996 -0.006 0.003c-1.0290000000000001 0.771 -2.178 1.6350000000000002 -3.492 2.58 -69.174 0.237 -146.2683 0.42000000000000004 -211.01909999999998 0.399 -0.0723 -1.0170000000000001 -0.1491 -2.0789999999999997 -0.22949999999999998 -3.192Zm-72.3471 0.276c12.558900000000001 -0.063 26.373 -0.12 41.143499999999996 -0.17400000000000002 0.2439 1.0379999999999998 0.48750000000000004 2.061 0.7311 3.0629999999999997 -15.145199999999999 -0.024 -29.2986 -0.06 -42.1365 -0.11399999999999999 0.0855 -0.8939999999999999 0.17250000000000001 -1.818 0.2619 -2.7750000000000004Zm-27.097500000000004 0.156c-22.314 0.153 -37.7736 0.321 -43.4247 0.504 -3.9000000000000004 0.30000000000000004 -2.0999999999999996 0.8999999999999999 0 1.2000000000000002 5.6757 0.35100000000000003 21.1743 0.597 43.5222 0.765 -0.0318 -0.789 -0.0642 -1.6110000000000002 -0.0975 -2.469Z" clip-rule="evenodd" stroke-width="3"></path>
      <path id="Subtract_3" fill="#3849f5" fill-rule="evenodd" d="M423.699 469.158c15.738000000000001 0.006 30.857999999999997 0.021 45.093 0.042 0.28800000000000003 0.792 0.579 1.554 0.879 2.286 -14.445 0.081 -29.858999999999998 0.168 -45.948 0.252 -0.015 -0.8340000000000001 -0.021 -1.6949999999999998 -0.024 -2.58Zm-31.428000000000004 0c-70.056 0.024 -148.1901 0.198 -213.6603 0.474 0.0684 1.041 0.13620000000000002 2.0580000000000003 0.2031 3.0569999999999995 65.8107 -0.11099999999999999 144.2562 -0.44099999999999995 214.17719999999997 -0.792 -0.264 -0.8519999999999999 -0.504 -1.7639999999999998 -0.72 -2.739Zm112.356 2.127c-0.026999999999999996 -0.126 -0.05399999999999999 -0.255 -0.081 -0.381 -0.11399999999999999 -0.5249999999999999 -0.22799999999999998 -1.065 -0.34800000000000003 -1.62 37.812 0.12 65.301 0.327 75.003 0.642 4.800000000000001 0.30000000000000004 5.1 0.6000000000000001 -0.30000000000000004 0.8999999999999999 -0.11699999999999999 0 -2.271 0.015 -6.213000000000001 0.039 -10.857000000000001 0.069 -35.292 0.22499999999999998 -68.061 0.42000000000000004Zm-361.14119999999997 -1.488c-11.797799999999999 0.06 -22.9572 0.126 -33.3213 0.192 -0.093 0.921 -0.1839 1.8239999999999998 -0.2727 2.718 10.6668 0.018000000000000002 22.173000000000002 0.021 34.347 0.018000000000000002 -0.2484 -0.99 -0.4992 -1.965 -0.753 -2.928Zm-106.6857 1.0290000000000001c6.7302 -0.21599999999999997 21.9075 -0.42000000000000004 43.0857 -0.6060000000000001 0.0354 0.81 0.0696 1.608 0.10289999999999999 2.391 -21.342 -0.10500000000000001 -36.6663 -0.29400000000000004 -43.4883 -0.585 -0.21810000000000002 -0.05399999999999999 -0.615 -0.129 -1.0697999999999999 -0.21299999999999997 -2.0448 -0.384 -5.2572 -0.9870000000000001 1.3695 -0.9870000000000001Z" clip-rule="evenodd" stroke-width="3"></path>
      <path id="Subtract_4" fill="#3849f5" fill-rule="evenodd" d="M424.97399999999993 435.981c11.883 0.003 23.316000000000003 0.015 34.134 0.036000000000000004 0.29400000000000004 0.954 0.5760000000000001 1.8900000000000001 0.8519999999999999 2.811 -11.084999999999999 0.048 -22.86 0.096 -35.142 0.14400000000000002 0.051000000000000004 -0.9930000000000001 0.10500000000000001 -1.989 0.156 -2.991Zm-34.989000000000004 0.021c-70.956 0.09 -151.50869999999998 0.46499999999999997 -213.29999999999998 0.972 0.047700000000000006 0.9119999999999999 0.0957 1.818 0.1434 2.709 62.0265 -0.06 142.6746 -0.315 213.28560000000002 -0.579 -0.042 -0.9990000000000001 -0.084 -2.0340000000000003 -0.129 -3.1020000000000003Zm108.402 2.664c-0.135 -0.8220000000000001 -0.27 -1.6560000000000001 -0.405 -2.502 25.677 0.15000000000000002 44.601 0.396 53.01899999999999 0.762 6 0.30000000000000004 6.6000000000000005 1.2000000000000002 0.8999999999999999 1.5 -0.129 0 -2.52 0.012 -6.861 0.03 -8.642999999999999 0.042 -25.022999999999996 0.11699999999999999 -46.653 0.21000000000000002Zm-362.9058 -1.305c-7.8348 0.08700000000000001 -15.0654 0.177 -21.5895 0.264 -0.0882 0.681 -0.1749 1.356 -0.26070000000000004 2.028 6.768600000000001 0.018000000000000002 14.2881 0.03 22.4454 0.039 -0.1959 -0.768 -0.3942 -1.545 -0.5952 -2.331Zm-57.880500000000005 1.065c0.324 -0.018000000000000002 0.6881999999999999 -0.036000000000000004 1.0914000000000001 -0.056999999999999995l0.0243 0.9990000000000001c-0.5268 -0.012 -0.9993000000000001 -0.026999999999999996 -1.416 -0.042 -2.7 0 -2.6997 -0.8999999999999999 0.3003 -0.8999999999999999Z" clip-rule="evenodd" stroke-width="3"></path>
      <path id="Subtract_5" fill="#3849f5" fill-rule="evenodd" d="M544.227 520.95c-49.59 0.249 -453.37620000000004 2.253 -476.22659999999996 0.279 -0.6000000000000001 0 -2.0999999999999996 -0.603 0 -0.30300000000000005 23.4 -1.5 439.80060000000003 -2.4000000000000004 481.2006 -0.8999999999999999 4.5 0 4.800000000000001 0.6000000000000001 0 0.8999999999999999 -0.10799999999999998 0 -1.83 0.009000000000000001 -4.974 0.024Z" clip-rule="evenodd" stroke-width="3"></path>
    </g>
    <g id="Group_3">
      <path id="Vector_11" fill="#09122e" d="M176.30040000000002 432.729c-6.8999999999999995 -38.7 -3.5999999999999996 -97.80000000000001 -6.8999999999999995 -97.5 -6.300000000000001 0.30000000000000004 9.000300000000001 171.60000000000002 9.3003 179.39999999999998 0 3 -2.4003 0.8999999999999999 -17.400299999999998 0.6000000000000001 -5.4 0 -2.9994 0.29700000000000004 -22.7994 -81.303 -1.5 -4.199999999999999 -20.7003 -80.4 -25.8003 -78 -1.7999999999999998 0.8999999999999999 8.3997 20.703 7.1997 25.203 -4.199999999999999 18 -17.1 110.697 -17.1 131.397 0 3.9000000000000004 -2.7 2.403 -17.4 1.803 -3 0 0.0006000000000000001 -0.003 -2.3994 -38.403 -2.4000000000000004 -38.7 -0.6003000000000001 -138.60000000000002 -6.9003 -137.39999999999998 -1.7999999999999998 0.30000000000000004 1.2003 6.8999999999999995 2.4003 32.400000000000006 0.8999999999999999 25.200000000000003 -1.5006 39 0.8994 92.1 2.4000000000000004 51.900000000000006 0.9006000000000001 52.803 6.6006 53.703 5.699999999999999 0.8999999999999999 11.6994 0.597 17.3994 -0.30300000000000005 5.1 -0.6000000000000001 3.0003 -43.5 18.3003 -130.5 0 0 18.900299999999998 70.203 19.8003 77.703 6.300000000000001 20.4 10.499699999999999 53.400000000000006 17.099700000000002 53.099999999999994 2.0999999999999996 0 4.1997 2.097 19.7997 1.197 5.4 -0.30000000000000004 1.7999999999999998 -8.097 -2.0999999999999996 -85.197Z" stroke-width="3"></path>
      <path id="Vector_12" fill="#09122e" d="M92.90039999999999 184.0272c5.4 -1.7999999999999998 5.7002999999999995 -1.7997 5.7002999999999995 -7.7997 -0.30000000000000004 -10.5 -1.8003 -13.5003 -10.2003 -16.2003 -10.8 -3.3000000000000003 -16.5 -13.799999999999999 -12 -27 4.199999999999999 -12.299999999999999 10.500300000000001 -8.0997 10.2003 -13.1997 -1.2000000000000002 -12.299999999999999 12.299999999999999 -22.5 25.5 -20.1 10.8 1.7999999999999998 13.5 14.400299999999998 5.1 20.400299999999998 -3 2.0999999999999996 -6.8999999999999995 2.7 -12.600000000000001 4.5 -6.300000000000001 2.4000000000000004 2.0999999999999996 8.3997 -1.5 14.6997 -1.2000000000000002 2.4000000000000004 -2.4003 2.3997 -4.2002999999999995 0.5997 -1.7999999999999998 -1.7999999999999998 -3.5994 -0.5994 -3.8994 1.2006000000000001 -0.8999999999999999 6.6000000000000005 9.5997 6.8994 4.1997 15.8994 -0.6000000000000001 0.6000000000000001 -0.8999999999999999 2.0999999999999996 -2.0999999999999996 1.5 -0.8999999999999999 -0.6000000000000001 0.30000000000000004 -1.5 0.6000000000000001 -2.0999999999999996 1.5 -4.5 2.7 -5.3997 -1.5 -8.0997 -2.7 -1.7999999999999998 -3.9000000000000004 -5.7002999999999995 -3 -8.4003 0.8999999999999999 -2.7 4.2002999999999995 -3.5994 6.3003 -1.7993999999999999 0.30000000000000004 0.30000000000000004 0.5997 0.8994 1.1997 0.8994 1.7999999999999998 -2.7 1.7997 -3.5999999999999996 0.5997 -6.6000000000000005 -7.199999999999999 -14.399999999999999 19.200000000000003 -8.6994 18.6 -21.2994 -0.8999999999999999 -14.700000000000001 -30.2997 -12.900299999999998 -31.1997 9.5997 0 1.2000000000000002 0 2.3997 -1.5 2.6997 -8.100000000000001 1.5 -14.9997 19.5 -5.6997 29.099999999999998 6.6000000000000005 7.199999999999999 15.5994 3.9006 18.2994 14.1006 1.5 5.4 0.6003000000000001 13.7997 0.3003 14.6997 1.2000000000000002 0 6.300000000000001 -1.8003 12.600000000000001 -3.3003 42.900000000000006 -10.5 99.89999999999999 -12.8997 123 -50.69969999999999 1.7999999999999998 -2.7 2.4000000000000004 0.00030000000000000003 5.4 7.8003 0.30000000000000004 0.30000000000000004 -0.00030000000000000003 0.8994 -0.3003 0.8994 -0.30000000000000004 0 -0.8996999999999999 0.30000000000000004 -1.1997 0 -1.5 -1.7999999999999998 -2.6997 -4.199999999999999 -3.5997 -6.6000000000000005 -3 6.300000000000001 -7.199999999999999 10.8 -12 15 -47.7 38.7 -126.00059999999999 24.299999999999997 -172.2006 64.5 -2.0999999999999996 0.6000000000000001 -19.7997 15.000600000000002 -28.199669999999998 31.2006 -10.5 20.4 -6.00015 47.0994 15.599969999999999 60.898199999999996 8.399999999999999 5.4 21.2997 7.800000000000001 22.1997 9.3 -2.7 0.6000000000000001 -5.3997 0.30000000000000004 -7.7997 -0.30000000000000004C-0.09926879999999999 298.3272 -6.3996900000000005 217.3272 92.90039999999999 184.0272Z" stroke-width="3"></path>
      <path id="Vector_13" fill="#09122e" d="M168.2004 297.4287c3.9000000000000004 33.000299999999996 3.9003 30.3003 -1.1997 32.7003 -18.6 9 -54.300000000000004 9.899999999999999 -76.5 7.800000000000001 -6.300000000000001 -0.6000000000000001 -12.6003 -1.7999999999999998 -18.900299999999998 -2.4000000000000004 -3.5999999999999996 -0.6000000000000001 -0.9002999999999999 -9 -5.7002999999999995 -45.0006 -6.6000000000000005 -49.800000000000004 -13.799999999999999 -51.8997 -11.100000000000001 -53.0997 3.3000000000000003 -1.2000000000000002 16.799999999999997 47.7 17.1 95.4003 0 2.4000000000000004 60.6003 8.100000000000001 92.7003 -3.9000000000000004 6.300000000000001 -2.4000000000000004 5.1 0 0 -31.5003 -1.7999999999999998 -63.300000000000004 9.899999999999999 -63.599999999999994 59.099999999999994 -122.10000000000001 17.4 -20.700000000000003 18.9 -31.5 21 -35.400000000000006 0.6000000000000001 -1.2000000000000002 1.5 -0.6003000000000001 1.5 0.5997 -6 33.3 -58.2003 71.1003 -71.4003 102.9003 -9 21 -6.8997 40.5 -6.5997 54Z" stroke-width="3"></path>
      <path id="Vector_14" fill="#09122e" d="M180.8001 540.4259999999999c-14.100000000000001 -1.2000000000000002 -20.6997 2.7 -20.6997 -8.399999999999999 0 -10.8 0.30000000000000004 -11.7 3 -11.7 13.200000000000001 0.6000000000000001 15.600000000000001 0 19.5 3.3000000000000003 10.2 8.399999999999999 17.6997 7.5 22.7997 10.2 1.7999999999999998 0.8999999999999999 2.4000000000000004 3.9000000000000004 -0.6000000000000001 5.1 -6.6000000000000005 2.0999999999999996 -17.1 1.5 -24 1.5Zm0.6000000000000001 -2.7s22.5003 0.30000000000000004 22.8003 -1.2000000000000002c0 -1.5 -2.0999999999999996 -1.5 -3.5999999999999996 -1.7999999999999998 -7.199999999999999 -1.2000000000000002 -13.8003 -4.199999999999999 -19.2003 -9 -3.3000000000000003 -2.7 -3.5997 -2.0999999999999996 -17.6997 -3.3000000000000003 -1.5 0 -2.0999999999999996 -0.30000000000000004 -1.5 10.5 0.30000000000000004 7.5 4.7997000000000005 3.5999999999999996 19.1997 4.800000000000001Z" stroke-width="3"></path>
      <path id="Vector_15" fill="#09122e" d="M107.0007 539.529c-14.399999999999999 -0.30000000000000004 -20.7006 1.7999999999999998 -20.7006 -6.8999999999999995 0 -12 0.3003 -12.899999999999999 3.3003 -12.899999999999999 12.600000000000001 0.8999999999999999 14.700000000000001 -0.30000000000000004 18.6 3 14.399999999999999 11.7 26.400000000000002 7.800000000000001 24.900000000000002 13.5 -1.2000000000000002 4.5 -21.2997 3.3000000000000003 -26.0997 3.3000000000000003Zm0.8994 -2.4000000000000004c3.9000000000000004 0 22.200000000000003 0.30000000000000004 22.5 -1.2000000000000002 0.30000000000000004 -2.7 -9.899999999999999 0.30000000000000004 -23.1 -10.8 -3 -2.7 -3.5997 -2.0999999999999996 -17.6997 -3 -1.5 0 -2.0999999999999996 0 -1.5 10.5 0.6000000000000001 6.8999999999999995 5.3997 3.5999999999999996 19.7997 4.5Z" stroke-width="3"></path>
      <path id="Vector_16" fill="#09122e" d="M102.5007 164.52839999999998c8.399999999999999 -1.7999999999999998 13.1994 -2.3994 15.2994 -8.3994 3 -9 0.6003000000000001 -15.0003 7.8003 -14.7003 -2.4000000000000004 -3.3000000000000003 -10.499699999999999 -16.200000000000003 -8.0997 -17.1 1.7999999999999998 -0.6000000000000001 -0.0006000000000000001 2.3997 9.2994 14.6997 5.1 6.6000000000000005 -4.4997 1.2006000000000001 -5.0997 8.1006 -0.30000000000000004 3.3000000000000003 -1.7997 12.299999999999999 -4.1997 14.100000000000001 -3.5999999999999996 2.4000000000000004 -1.8003 5.6994 -0.9002999999999999 10.7994 0.30000000000000004 1.5 -0.8999999999999999 1.8005999999999998 -1.5 0.6006 -3.3000000000000003 -5.699999999999999 -0.3003 -8.7003 -4.2002999999999995 -7.8003 -2.4000000000000004 0.6000000000000001 -5.3994 1.1997 -8.3994 -0.3003Z" stroke-width="3"></path>
      <path id="Vector_17" fill="#09122e" d="M107.3001 294.7281c-0.30000000000000004 0.30000000000000004 -0.3003 0.8996999999999999 -0.9002999999999999 0.5997 -0.30000000000000004 0 -0.2994 -0.5997 -0.2994 -1.1997 -8.399999999999999 -55.199999999999996 -19.200000000000003 -63.9003 -16.5 -64.80030000000001 3 -1.2000000000000002 17.3997 39.9003 17.6997 65.4003Z" stroke-width="3"></path>
      <path id="Vector_18" fill="#09122e" d="M240.2001 124.6275c-1.7999999999999998 -0.8999999999999999 2.4000000000000004 -17.7006 15.899999999999999 -20.1006 9.3 -1.5 12.599700000000002 7.8006 10.7997 10.2006 -2.0999999999999996 -1.2000000000000002 -2.6994000000000002 -11.100000000000001 -12.8994 -7.5 -10.8 3.9000000000000004 -12.3003 15.600000000000001 -13.8003 17.4Z" stroke-width="3"></path>
      <path id="Vector_19" fill="#09122e" d="M246.2007 107.82750000000001c-0.30000000000000004 1.2000000000000002 -1.2000000000000002 1.5003 -2.0999999999999996 0.9002999999999999 -2.4000000000000004 -1.5 -18 -12.0003 -16.5 -13.8003 1.2000000000000002 -2.0999999999999996 16.5 9 18.6 12.899999999999999Z" stroke-width="3"></path>
      <path id="Vector_20" fill="#09122e" d="M248.8998 137.8278c-1.2000000000000002 0.6000000000000001 -1.7993999999999999 -0.3003 -0.8994 -0.9002999999999999 4.5 -3.5999999999999996 -1.5003 -9.3 1.7997 -15 2.0999999999999996 -3.9000000000000004 9.000300000000001 -2.4000000000000004 9.3003 1.5 0.30000000000000004 1.5 -0.9002999999999999 2.4000000000000004 -1.8003 0.6000000000000001 -1.2000000000000002 -1.7999999999999998 -2.6997 -2.7 -4.7997000000000005 -2.0999999999999996 -5.1 2.0999999999999996 2.3994 12.3003 -3.6006 15.900299999999998Z" stroke-width="3"></path>
      <path id="Vector_21" fill="#09122e" d="M262.7001 121.02779999999998c-0.8999999999999999 -0.8999999999999999 -3.5999999999999996 -12.2994 -12 -5.3994 -0.8999999999999999 0.6000000000000001 -1.7999999999999998 2.3997 -2.4000000000000004 1.7997 -0.8999999999999999 -0.8999999999999999 0.8999999999999999 -2.0999999999999996 1.5 -3 8.399999999999999 -9.3 16.200000000000003 4.4997 12.899999999999999 6.5997Z" stroke-width="3"></path>
      <path id="Vector_22" fill="#09122e" d="M112.1001 150.129c-1.7999999999999998 2.0999999999999996 -6.6000000000000005 1.1997 -7.5 -2.7003 -0.30000000000000004 -1.2000000000000002 0.8999999999999999 -2.0997 1.5 -1.1997 1.2000000000000002 2.4000000000000004 3.5999999999999996 2.7 6 3.9000000000000004Z" stroke-width="3"></path>
      <path id="Vector_23" fill="#09122e" d="M107.00040000000001 131.5272c-2.0999999999999996 -2.4000000000000004 0.30000000000000004 -6.300000000000001 3.5999999999999996 -6 1.7999999999999998 0.30000000000000004 1.7997 2.1006 0.5997 2.1006 -2.0999999999999996 0.30000000000000004 -2.9997 2.0994 -4.1997 3.8994Z" stroke-width="3"></path>
      <path id="Vector_24" fill="#09122e" d="M110.6004 136.62720000000002c0.30000000000000004 -3 3 -2.1003 3 0.2997 -0.30000000000000004 2.4000000000000004 -3 2.7003 -3 -0.2997Z" stroke-width="3"></path>
    </g>
    <g id="Group_4">
      <path id="Vector_25" fill="#09122e" d="M471.801 176.5269c-1.2000000000000002 -0.6000000000000001 -2.4000000000000004 -0.8999999999999999 -3.5999999999999996 -2.0999999999999996 1.5 -0.8999999999999999 3 -0.30000000000000004 4.199999999999999 0 48.599999999999994 11.399999999999999 61.5 93.0003 -11.7 103.8003 -6.300000000000001 1.2000000000000002 -34.2 -0.2997 -38.099999999999994 -6.5997 1.7999999999999998 -0.6000000000000001 5.4 2.6994000000000002 21 3.8994 73.19999999999999 5.4 89.1 -72.9 28.200000000000003 -99Z" stroke-width="3"></path>
      <path id="Vector_26" fill="#09122e" d="M468.201 457.02600000000007c8.7 32.099999999999994 12.899999999999999 24.903 38.099999999999994 29.103 -0.8999999999999999 1.2000000000000002 -1.7999999999999998 1.5 -2.7 1.5 -37.8 1.2000000000000002 -31.5 -11.103 -46.5 -56.40299999999999 0 -1.5 -29.400000000000002 -88.5 -30.900000000000002 -93.30000000000001 -1.5 -4.800000000000001 0.8999999999999999 -10.8 23.700000000000003 60.900000000000006 16.5 51.900000000000006 3.5999999999999996 4.199999999999999 18.299999999999997 58.199999999999996Z" stroke-width="3"></path>
      <path id="Vector_27" fill="#09122e" d="M373.401 295.02750000000003c0 -4.199999999999999 0 -11.6994 1.5 -15.8994 1.7999999999999998 0 -1.2000000000000002 3.5994 2.7 36.8979 0.8999999999999999 7.199999999999999 116.69999999999999 17.102999999999998 117.60000000000001 0.603 1.7999999999999998 -29.700899999999997 0.8999999999999999 -28.2012 0 -42.9012 -0.8999999999999999 -11.7 6 3.5997 1.7999999999999998 43.2012 -1.7999999999999998 17.4 -86.1 13.200000000000001 -117.60000000000001 3 -3.9000000000000004 -1.2000000000000002 -5.4 -2.7030000000000003 -6 -24.9015Z" stroke-width="3"></path>
      <path id="Vector_28" fill="#09122e" d="M390.801 455.82900000000006c0 -0.30000000000000004 -5.699999999999999 -129.60000000000002 -3.9000000000000004 -129.89999999999998 3.3000000000000003 0 5.699999999999999 120.89999999999999 9 148.8 0.30000000000000004 3.9000000000000004 12 7.5 19.5 8.7 3.5999999999999996 0.6000000000000001 6.8999999999999995 0.6000000000000001 10.5 1.2000000000000002 -3.9000000000000004 1.7999999999999998 -8.100000000000001 1.7999999999999998 -12.299999999999999 1.2000000000000002 -16.5 -2.7 -21.9 -6.300000000000001 -22.799999999999997 -30Z" stroke-width="3"></path>
      <path id="Vector_29" fill="#09122e" d="M465.501 131.2272c-2.0999999999999996 -13.5 -11.7 -21.900299999999998 -22.200000000000003 -24.9003 -30.299999999999997 -8.100000000000001 -43.2 38.400000000000006 -31.200000000000003 52.5 -10.8 3 -13.5 16.799999999999997 -10.5 21.6 0.6000000000000001 -7.199999999999999 1.2000000000000002 -14.099700000000002 7.800000000000001 -18.2997 1.7999999999999998 -1.2000000000000002 3.9000000000000004 -1.5 6.6000000000000005 -0.8999999999999999 -4.5 1.5 -8.100000000000001 3.5997 -9 8.0997 9.3 -8.7 11.7 -6 17.1 -0.8999999999999999 0.30000000000000004 -3 -1.2000000000000002 -5.4 -4.5 -6.6000000000000005 -4.199999999999999 -1.2000000000000002 -3 -2.6997 -4.199999999999999 -2.6997 -2.7 0 -3.5999999999999996 -3.5999999999999996 -4.199999999999999 -6 -3.5999999999999996 -15.299999999999999 -0.30000000000000004 -28.5006 10.8 -39.6006 12.299999999999999 -12.299999999999999 30 -3.5999999999999996 35.400000000000006 4.5 12.299999999999999 12.899999999999999 7.199999999999999 48.000299999999996 -19.5 52.80030000000001 -1.5 0.30000000000000004 -2.7 0.6003000000000001 -4.5 0.9002999999999999 6.300000000000001 6.6000000000000005 37.2 -7.800000000000001 32.099999999999994 -40.5Z" stroke-width="3"></path>
      <path id="Vector_30" fill="#09122e" d="M501.501 456.129c2.0999999999999996 9.600000000000001 5.699999999999999 22.797 4.800000000000001 26.397 -14.399999999999999 -31.200000000000003 -25.200000000000003 -155.39999999999998 -19.799999999999997 -154.5 0.8999999999999999 0 0.8999999999999999 0.30000000000000004 0.8999999999999999 9.899999999999999 -0.30000000000000004 4.800000000000001 7.199999999999999 85.803 14.100000000000001 118.203Z" stroke-width="3"></path>
      <path id="Vector_31" fill="#09122e" d="M464.90100000000007 517.629c-3.9000000000000004 0 -11.7 -0.8999999999999999 -15 -3 -8.100000000000001 -5.1 6.8999999999999995 -5.103 30.299999999999997 -24.603 3 -2.4000000000000004 6.300000000000001 2.4000000000000004 22.5 2.7 8.100000000000001 0 -12.299999999999999 25.503 -37.8 24.903Zm-14.399999999999999 -5.403c15.899999999999999 8.100000000000001 45.900000000000006 -3.5999999999999996 50.400000000000006 -16.5 -5.1 -0.30000000000000004 -10.5 -0.6000000000000001 -15.299999999999999 -2.7 -5.4 -2.4000000000000004 -6 0.903 -9.600000000000001 3.603 -7.800000000000001 5.699999999999999 -15.899999999999999 11.397 -25.5 15.597Z" stroke-width="3"></path>
      <path id="Vector_32" fill="#09122e" d="M385.101 517.326c-12.600000000000001 0 -21.9 -4.800000000000001 -14.700000000000001 -8.399999999999999 28.200000000000003 -14.100000000000001 27.900000000000002 -22.200000000000003 36.900000000000006 -18.9 9 3.3000000000000003 16.799999999999997 0.8999999999999999 17.700000000000003 3.3000000000000003 0.6000000000000001 1.2000000000000002 -5.1 12 -13.799999999999999 16.5 -8.100000000000001 3.9000000000000004 -16.5 7.5 -26.099999999999998 7.5Zm-14.399999999999999 -5.699999999999999c15.899999999999999 8.399999999999999 46.5 -3.9000000000000004 50.400000000000006 -16.799999999999997 -6.300000000000001 0 -12.299999999999999 -1.2000000000000002 -18.299999999999997 -3.5999999999999996 -2.0999999999999996 -0.8999999999999999 -1.2000000000000002 1.2000000000000002 -9.600000000000001 6.8999999999999995 -6.8999999999999995 5.1 -14.100000000000001 10.2 -22.5 13.5Z" stroke-width="3"></path>
      <path id="Vector_33" fill="#09122e" d="M431.301 359.82599999999996c1.7999999999999998 0.30000000000000004 0 0 -4.199999999999999 61.5 -1.5 24.599999999999998 -1.7999999999999998 48.300000000000004 -3.9000000000000004 59.400000000000006 -1.5 -1.7999999999999998 -1.5 -3.5999999999999996 -1.5 -5.1 0 -24.900000000000002 5.1 -116.39999999999999 9.600000000000001 -115.80000000000001Z" stroke-width="3"></path>
      <path id="Vector_34" fill="#09122e" d="M463.40100000000007 168.4266c2.7 -3.5999999999999996 3 -7.800000000000001 2.0999999999999996 -12 -0.30000000000000004 -0.6000000000000001 0 -2.0994 -1.2000000000000002 -1.7993999999999999 -2.4000000000000004 0.6000000000000001 6.6000000000000005 13.799999999999999 -16.5 22.5 -4.5 1.7999999999999998 -10.8 5.9994 -9.899999999999999 10.7994 4.800000000000001 -10.5 17.1 -7.5 25.5 -19.5Z" stroke-width="3"></path>
      <path id="Vector_35" fill="#09122e" d="M463.101 170.2278c-0.6000000000000001 0.8999999999999999 4.199999999999999 13.200000000000001 -2.0999999999999996 19.5 -3.5999999999999996 5.1 -16.799999999999997 5.4003 -15 15.900299999999998 3 -7.800000000000001 8.399999999999999 -8.400599999999999 14.700000000000001 -11.7006 10.2 -9 4.800000000000001 -26.6997 2.4000000000000004 -23.6997Z" stroke-width="3"></path>
      <path id="Vector_36" fill="#09122e" d="M489.801 231.4275c-12 0.8999999999999999 -20.700000000000003 0.3003 -36.900000000000006 4.2002999999999995 -22.200000000000003 5.1 -26.099999999999998 10.7997 -27.299999999999997 8.6997 -0.8999999999999999 -2.4000000000000004 35.7 -20.4 64.19999999999999 -12.899999999999999Z" stroke-width="3"></path>
      <path id="Vector_37" fill="#09122e" d="M412.101 294.1269c-1.5 12.899099999999999 -0.6000000000000001 27.299100000000003 -2.4000000000000004 27.299100000000003 -4.5 0 6 -95.09909999999999 2.4000000000000004 -27.299100000000003Z" stroke-width="3"></path>
      <path id="Vector_38" fill="#09122e" d="M453.201 280.3272c1.2000000000000002 2.4000000000000004 1.7999999999999998 39.2988 1.7999999999999998 43.1988 -1.5 -0.6000000000000001 -1.5 -1.7999999999999998 -1.5 -3 -0.8999999999999999 -7.199999999999999 -2.7 -34.1988 -0.30000000000000004 -40.1988Z" stroke-width="3"></path>
      <path id="Vector_39" fill="#09122e" d="M482.301 199.3272c-9.3 28.799999999999997 -8.399999999999999 29.100300000000004 -9.899999999999999 28.8003 -1.5 -0.8999999999999999 4.199999999999999 -24.3003 9.899999999999999 -28.8003Z" stroke-width="3"></path>
      <path id="Vector_40" fill="#09122e" d="M395.601 175.6266c-0.8999999999999999 2.0999999999999996 -21.6 8.9994 -32.400000000000006 30.8994 -13.799999999999999 28.200000000000003 -5.1 59.4003 16.200000000000003 67.80030000000001 19.5 7.5 42 -6.2997 42 -46.1997 0 -20.1 -9 -34.2 -8.399999999999999 -36.900000000000006 6.8999999999999995 3.5999999999999996 19.5 42.5997 3.3000000000000003 71.0997 -18.299999999999997 32.400000000000006 -68.69999999999999 14.700000000000001 -62.400000000000006 -36 4.5 -33.900000000000006 35.099999999999994 -51.8997 41.7 -50.69969999999999Z" stroke-width="3"></path>
      <path id="Vector_41" fill="#09122e" d="M430.101 118.3281c-10.5 4.5 -14.700000000000001 19.5 -9.899999999999999 31.5 6.300000000000001 15.899999999999999 21.9 18.0003 29.400000000000002 6.3003 7.800000000000001 -12 3.3000000000000003 -32.7 -10.8 -37.5 -0.6000000000000001 -0.30000000000000004 -1.7999999999999998 -0.30000000000000004 -1.5 -1.5 0.30000000000000004 -0.8999999999999999 1.2000000000000002 -0.6003000000000001 1.7999999999999998 -0.3003 15.600000000000001 4.5 21.6 28.5003 10.5 42.3003 -17.1 21.299999999999997 -45 -10.2 -29.400000000000002 -34.5 5.4 -7.800000000000001 13.200000000000001 -7.8003 9.899999999999999 -6.3003Z" stroke-width="3"></path>
      <path id="Vector_42" fill="#09122e" d="M451.40100000000007 214.0275c-10.5 -0.30000000000000004 -14.700000000000001 -6.8994 -19.200000000000003 -14.3994 -9.600000000000001 -15 -15.899999999999999 -12.299999999999999 -14.399999999999999 -15 0.6000000000000001 -1.5 7.199999999999999 1.4997 11.100000000000001 5.6997 7.5 7.800000000000001 8.399999999999999 15.6003 19.5 21.3003 1.2000000000000002 0.6000000000000001 2.0999999999999996 0.8994 3 2.3994Z" stroke-width="3"></path>
      <path id="Vector_43" fill="#09122e" d="M400.701 156.4269c0.30000000000000004 0.6000000000000001 1.2000000000000002 1.2003 0.6000000000000001 1.8003 -0.6000000000000001 0.6000000000000001 -1.2000000000000002 -0.3003 -1.7999999999999998 -0.9002999999999999 -6.300000000000001 -5.699999999999999 -5.699999999999999 -9 -7.5 -7.5 -2.0999999999999996 1.7999999999999998 -0.8999999999999999 1.8003 9.3 12.900299999999998 0.6000000000000001 0.6000000000000001 1.5 1.1997 0.8999999999999999 2.0997 -1.2000000000000002 1.2000000000000002 -7.800000000000001 -6.8999999999999995 -12.600000000000001 -12 -0.6000000000000001 -0.6000000000000001 -1.2000000000000002 -1.5 -0.30000000000000004 -2.4000000000000004 3.5999999999999996 -4.199999999999999 2.7 -5.4 11.399999999999999 6Z" stroke-width="3"></path>
      <path id="Vector_44" fill="#09122e" d="M454.701 199.9278c3.5999999999999996 25.799999999999997 -2.4000000000000004 33.3 -2.0999999999999996 28.5 2.0999999999999996 -27 0.30000000000000004 -27.299999999999997 2.0999999999999996 -28.5Z" stroke-width="3"></path>
      <path id="Vector_45" fill="#09122e" d="M423.501 177.72809999999998c-2.7 -1.2000000000000002 -5.1 -8.1003 -9.600000000000001 -2.7003 -2.7 3 -2.0999999999999996 8.100000000000001 -3.5999999999999996 7.5 -2.0999999999999996 -0.6000000000000001 1.7999999999999998 -13.499399999999998 8.7 -11.3994 2.0999999999999996 0.8999999999999999 4.5 4.1997 4.5 6.5997Z" stroke-width="3"></path>
      <path id="Vector_46" fill="#09122e" d="M397.701 178.6275c3.3000000000000003 7.800000000000001 9.600000000000001 9.599400000000001 14.700000000000001 6.8994 -2.7 6.300000000000001 -16.799999999999997 1.5006 -14.700000000000001 -6.8994Z" stroke-width="3"></path>
      <path id="Vector_47" fill="#09122e" d="M424.101 173.22840000000002c-2.7 -0.8999999999999999 -5.1 -6.900599999999999 -12.299999999999999 -2.7006 -0.6000000000000001 0.30000000000000004 -1.2000000000000002 1.2003 -1.7999999999999998 0.3003 -0.6000000000000001 -0.6000000000000001 0.30000000000000004 -1.2000000000000002 0.6000000000000001 -1.5 5.699999999999999 -5.1 12.600000000000001 -1.4997 13.5 3.9003Z" stroke-width="3"></path>
      <path id="Vector_48" fill="#09122e" d="M431.001 135.4278c2.0999999999999996 5.1 -2.0999999999999996 10.500300000000001 1.7999999999999998 10.2003 1.7999999999999998 0 0.8999999999999999 2.6997 -2.4000000000000004 1.7997 -2.4000000000000004 -0.6000000000000001 -1.5 -4.5 0.6000000000000001 -12Z" stroke-width="3"></path>
      <path id="Vector_49" fill="#09122e" d="M442.101 124.9278c2.4000000000000004 0 5.1 3.6003 4.5 4.2002999999999995 -0.6000000000000001 0.8999999999999999 -3.5999999999999996 -1.8003 -6.8999999999999995 -1.8003 -1.7999999999999998 0.30000000000000004 -2.0999999999999996 -2.4000000000000004 2.4000000000000004 -2.4000000000000004Z" stroke-width="3"></path>
      <path id="Vector_50" fill="#09122e" d="M422.001 131.5272c-0.6000000000000001 -5.699999999999999 6.300000000000001 -5.6994 6.300000000000001 -3.8994 0.30000000000000004 1.2000000000000002 -0.8999999999999999 -0.0006000000000000001 -6.300000000000001 3.8994Z" stroke-width="3"></path>
      <path id="Vector_51" fill="#09122e" d="M441.201 148.62689999999998c0 3.9000000000000004 -4.800000000000001 5.9997 -5.4 4.1997 -0.6000000000000001 -1.2000000000000002 1.2000000000000002 -0.6000000000000001 3.5999999999999996 -4.5 0.30000000000000004 -0.30000000000000004 0.30000000000000004 -1.2000000000000002 1.2000000000000002 -0.8999999999999999 0.6000000000000001 0 0.6000000000000001 0.6003000000000001 0.6000000000000001 1.2003Z" stroke-width="3"></path>
      <path id="Vector_52" fill="#09122e" d="M440.90100000000007 135.1275c1.7999999999999998 0.30000000000000004 2.0999999999999996 3.8994 0 3.8994 -1.7999999999999998 0.30000000000000004 -2.0999999999999996 -3.2994000000000003 0 -3.8994Z" stroke-width="3"></path>
      <path id="Vector_53" fill="#09122e" d="M423.801 136.3272c2.4000000000000004 0.30000000000000004 1.7999999999999998 3.9000000000000004 0 3.9000000000000004 -1.5 0 -1.7999999999999998 -3.5999999999999996 0 -3.9000000000000004Z" stroke-width="3"></path>
    </g>
    <g id="Group_5">
      <path id="Vector_54" fill="#3849f5" d="M269.9001 407.52600000000007c-3.5999999999999996 0 -3.8994 0.30000000000000004 -3.8994 3.9000000000000004 0.30000000000000004 9.899999999999999 4.1994 28.503 4.7994 33.303000000000004 1.5 14.700000000000001 2.4003 14.997 5.4003 15.297 7.199999999999999 0.30000000000000004 19.7997 -1.4969999999999999 53.1006 -1.797 4.5 0 2.7 -1.5 5.699999999999999 -47.099999999999994 0.30000000000000004 -6.8999999999999995 5.1 -4.803 -65.1009 -3.603Zm3.6006 9.603c-0.30000000000000004 -1.5 0.2997 -2.7 2.0997 -3 3.3000000000000003 -0.6000000000000001 3.6003 3.897 3.9003 6.897 2.4000000000000004 25.200000000000003 -4.199999999999999 12.303 -6 -3.897Z" stroke-width="3"></path>
      <path id="Vector_55" fill="#3849f5" d="M340.401 376.929c1.2000000000000002 0.8999999999999999 2.7 1.5 3.9000000000000004 2.4000000000000004 5.4 4.199999999999999 5.1 11.100000000000001 -0.8999999999999999 14.700000000000001 -8.100000000000001 4.800000000000001 -15.299999999999999 2.0999999999999996 -27.299999999999997 5.4 -0.6000000000000001 0.30000000000000004 -1.7999999999999998 0.6000000000000001 -2.0999999999999996 -0.30000000000000004 -0.30000000000000004 -0.8999999999999999 0.8999999999999999 -1.2000000000000002 1.5 -1.7999999999999998 9.899999999999999 -5.4 18 -1.2000000000000002 26.400000000000002 -6 8.100000000000001 -4.800000000000001 0 -15.299999999999999 -6.8999999999999995 -10.8 -25.799999999999997 16.799999999999997 -23.700000000000003 18.299999999999997 -25.5 17.4 -2.7 -1.5 3.5999999999999996 -38.7 25.5 -43.8 10.8 -2.4000000000000004 20.4 8.399999999999999 5.4 22.799999999999997Zm-29.400000000000002 16.799999999999997c1.2000000000000002 0.6000000000000001 0 0 2.7 -2.0999999999999996 16.200000000000003 -13.799999999999999 25.5 -14.399999999999999 30.299999999999997 -24.299999999999997 7.800000000000001 -16.200000000000003 -26.099999999999998 -18 -33 26.400000000000002Z" stroke-width="3"></path>
      <path id="Vector_56" fill="#3849f5" d="M304.401 381.726c-1.7999999999999998 0.8999999999999999 -2.4000000000000004 -1.2000000000000002 -3.5999999999999996 -2.4000000000000004 -10.800899999999999 -10.2 -23.400299999999998 -6.8999999999999995 -33.3003 -20.4 -9.600000000000001 -12.899999999999999 3.9000000000000004 -28.200000000000003 18 -20.4 17.1003 9.600000000000001 22.2003 41.7 18.900299999999998 43.2Zm-2.0999999999999996 -3.3000000000000003c2.0999999999999996 -11.399999999999999 -13.8006 -46.8 -29.7006 -38.099999999999994 -10.2 5.699999999999999 -7.199999999999999 21.299999999999997 12 27.900000000000002 6.300000000000001 2.0999999999999996 12.599700000000002 4.5 17.7006 10.2Z" stroke-width="3"></path>
      <path id="Vector_57" fill="#3849f5" d="M308.001 333.129c9 -17.700000000000003 37.5 -3.9000000000000004 14.100000000000001 22.799999999999997 -3.3000000000000003 3.9000000000000004 -7.199999999999999 6.8999999999999995 -10.8 10.5 -4.5 4.5 -9 -21.9 -3.3000000000000003 -33.3Zm1.5 31.200000000000003c7.5 -7.800000000000001 18.299999999999997 -16.5 18.6 -27 0.30000000000000004 -12 -14.399999999999999 -11.7 -18.299999999999997 -1.7999999999999998 -3 9.3 -1.5 18.9 -0.30000000000000004 28.799999999999997Z" stroke-width="3"></path>
      <path id="Vector_58" fill="#3849f5" d="M299.6001 398.529c-12.299999999999999 0.30000000000000004 -24.900000000000002 6.300000000000001 -33 -6.8999999999999995 -5.1 -8.7 3.8997 -21.6 23.6997 -13.200000000000001 7.5 3.3000000000000003 12.0012 9 13.5012 17.1 0.6000000000000001 3.5999999999999996 0.30000000000000004 3 -4.200900000000001 3Zm-21 -20.4c-6.8999999999999995 -0.6000000000000001 -14.1003 6 -9.3003 12.600000000000001 8.100000000000001 11.399999999999999 18.6003 4.800000000000001 30.3003 4.800000000000001 2.1009 0 1.8009 -0.8999999999999999 1.2008999999999999 -2.0999999999999996 -3.0012 -10.5 -13.200899999999999 -14.399999999999999 -22.200899999999997 -15.299999999999999Z" stroke-width="3"></path>
      <path id="Vector_59" fill="#3849f5" d="M303.20099999999996 325.629c0 5.4 -2.0999999999999996 10.497 -3 15.897000000000002 -0.3003 0.8999999999999999 -0.6006 1.5030000000000001 -1.8005999999999998 0.903 -6.300000000000001 -4.800000000000001 -14.700000000000001 -10.2 -16.5 -19.200000000000003 -2.4000000000000004 -13.5 21.6006 -16.5 21.3006 2.4000000000000004Zm-5.1003 14.397000000000002c1.5 -6.8999999999999995 3.0003 -12.297 2.4003 -17.697 -0.8999999999999999 -7.800000000000001 -10.2003 -9 -14.400299999999998 -5.1 -6.8999999999999995 6.8999999999999995 10.5 20.997 12 22.797Z" stroke-width="3"></path>
    </g>
  </g>
</svg>