<svg xmlns="http://www.w3.org/2000/svg" fill="none" viewBox="0 0 600 600" id="Coworking-Place--Streamline-Brooklyn" height="600" width="600">
  <desc>
    Coworking Place Streamline Illustration: https://streamlinehq.com
  </desc>
  <g id="coworking-place--work-coworking-place">
    <g id="floor">
      <path id="Subtract" fill="#09122e" fill-rule="evenodd" d="M77.031 413.04599999999994c-11.690100000000001 0.033 -21.9882 0.07200000000000001 -30.5952 0.11099999999999999 -0.1227 0.711 -0.2502 1.4489999999999998 -0.3828 2.2199999999999998 8.8464 0.012 19.4358 0.024 31.4544 0.033 -0.1542 -0.762 -0.3129 -1.5510000000000002 -0.4764 -2.364Zm9.9864 2.37c-0.165 -0.771 -0.3375 -1.569 -0.5178 -2.394 4.3743 -0.012 8.9124 -0.021 13.601099999999999 -0.03 -0.0798 0.798 -0.1602 1.608 -0.24180000000000001 2.43 -4.416 0 -8.7 -0.003 -12.8415 -0.006Zm21.346799999999998 0.009000000000000001c7.8447 0.003 16.0569 0.006 24.5814 0.006 -0.030600000000000002 -0.318 -0.0615 -0.639 -0.09240000000000001 -0.9570000000000001l0 -0.003c-0.0495 -0.51 -0.099 -1.0230000000000001 -0.1488 -1.5390000000000001 -8.3535 0.012 -16.4022 0.026999999999999996 -24.093899999999998 0.042 -0.0849 0.8459999999999999 -0.1671 1.6620000000000001 -0.24630000000000002 2.4509999999999996Zm33.2727 -2.505c0.0798 0.8639999999999999 0.1572 1.7009999999999998 0.2322 2.511l29.479499999999998 0c0.1749 -0.8160000000000001 0.3585 -1.665 0.5508000000000001 -2.544 -10.407599999999999 0.009000000000000001 -20.5206 0.021 -30.262500000000003 0.033Zm39.735600000000005 -0.042c-0.1773 0.879 -0.3486 1.7309999999999999 -0.5148 2.553 10.2579 -0.003 20.7699 -0.003 31.466699999999996 -0.006 -0.1545 -0.897 -0.3021 -1.7519999999999998 -0.44339999999999996 -2.5709999999999997 -10.3674 0.006 -20.5581 0.015 -30.508499999999998 0.024Zm39.4308 -0.026999999999999996c0.15510000000000002 0.8759999999999999 0.3069 1.7369999999999999 0.45389999999999997 2.5709999999999997 18.429 -0.006 37.3401 -0.012 56.388 -0.018000000000000002 0.0765 -0.8430000000000001 0.15539999999999998 -1.7009999999999998 0.2358 -2.5709999999999997 -19.2888 0.003 -38.4348 0.009000000000000001 -57.0777 0.018000000000000002Zm65.4936 -0.018000000000000002 -0.2604 2.568c8.232600000000001 -0.006 16.4805 -0.009000000000000001 24.7185 -0.012 -0.063 -0.8220000000000001 -0.129 -1.6710000000000003 -0.198 -2.553 -8.084999999999999 0 -16.1802 -0.003 -24.2601 -0.003Zm33.311099999999996 0.006c0.084 0.8759999999999999 0.165 1.7249999999999999 0.246 2.544 9.209999999999999 -0.003 18.396 -0.009000000000000001 27.512999999999998 -0.012 0.08700000000000001 -0.8220000000000001 0.17400000000000002 -1.665 0.261 -2.5229999999999997 -9.285 -0.006 -18.639 -0.009000000000000001 -28.02 -0.009000000000000001Zm152.817 0.126c8.655 0.012 16.965 0.026999999999999996 24.875999999999998 0.045 0.06 0.78 0.12 1.533 0.18 2.262 -8.040000000000001 0.006 -16.494 0.012 -25.302 0.018000000000000002 0.081 -0.765 0.162 -1.5390000000000001 0.246 -2.325Zm-82.524 -0.093c26.103 0.018000000000000002 51.083999999999996 0.045 73.929 0.078 -0.07500000000000001 0.81 -0.14700000000000002 1.593 -0.21599999999999997 2.346 -22.701 0.015 -47.510999999999996 0.033 -73.437 0.048 -0.09 -0.795 -0.18 -1.62 -0.276 -2.472Zm-33.653999999999996 -0.021c8.367 0.003 16.665 0.009000000000000001 24.864 0.015 0.063 0.8579999999999999 0.12 1.6860000000000002 0.17400000000000002 2.484 -8.334 0.006 -16.77 0.009000000000000001 -25.275000000000002 0.015 0.07500000000000001 -0.807 0.156 -1.6470000000000002 0.237 -2.514Zm150.399 2.412c-0.056999999999999995 -0.72 -0.11699999999999999 -1.464 -0.18 -2.235 2.862 0.006 5.664 0.012 8.403 0.018000000000000002 -0.165 0.762 -0.324 1.4969999999999999 -0.477 2.211 -2.529 0.003 -5.112 0.003 -7.7459999999999996 0.006Zm17.253 -0.015c12.027000000000001 -0.009000000000000001 22.599 -0.018000000000000002 31.395 -0.026999999999999996 -0.123 -0.708 -0.24 -1.389 -0.354 -2.0490000000000004 -8.625 -0.036000000000000004 -18.924 -0.069 -30.603 -0.10200000000000001 -0.15000000000000002 0.747 -0.29400000000000004 1.4729999999999999 -0.43799999999999994 2.178Zm39.974999999999994 -2.031c0.12 0.678 0.237 1.344 0.35100000000000003 1.995 12.072 -0.012 19.169999999999998 -0.018000000000000002 19.932000000000002 -0.024 0.522 0 1.806 -1.578 0.183 -1.7519999999999998h-0.003c-0.753 -0.081 -8.055 -0.153 -20.463 -0.21899999999999997Zm-526.7511 2.142c0.1236 -0.7020000000000001 0.2505 -1.419 0.3801 -2.154 -11.829450000000001 0.07200000000000001 -18.926070000000003 0.156 -20.01879 0.249 -3.834 0.33 -1.983 1.779 -0.7020000000000001 1.806 1.8612900000000001 0.042 8.99862 0.07500000000000001 20.340690000000002 0.099Z" clip-rule="evenodd" stroke-width="3"></path>
    </g>
    <g id="chair 2">
      <path id="Subtract_2" fill="#3849f5" fill-rule="evenodd" d="M229.12199999999999 332.18100000000004c-0.07200000000000001 -1.965 -1.2120000000000002 -3.0300000000000002 -3.183 -3.285v-0.009000000000000001c-3.636 -0.471 -12.432 -0.34500000000000003 -12.432 -0.28500000000000003 -8.801400000000001 0 -13.462499999999999 -0.192 -16.1049 2.0220000000000002 -1.1721 0.9810000000000001 -1.947 2.439 -2.5098000000000003 4.596 0.8028 -0.006 1.6089 -0.012 2.4183000000000003 -0.018000000000000002 1.0386 -2.544 2.9634 -4.191 6.4284 -4.239 3.3843000000000005 -0.048 6.2868 -0.129 8.7729 -0.198 11.3736 -0.324 14.040600000000001 -0.399 14.3094 4.254 0.7878000000000001 -0.006 1.5777 -0.009000000000000001 2.3693999999999997 -0.012 -0.0108 -0.942 -0.0339 -1.884 -0.0687 -2.8259999999999996Zm-1.3478999999999999 21.044999999999998 -2.1471 0c-1.1286 14.052 -2.0889 20.115000000000002 -5.6286000000000005 22.902 -2.9877000000000002 2.349 -7.812899999999999 2.364 -16.1274 2.877 -5.115 0.315 -20.469 -0.036000000000000004 -25.119 -2.187 -4.461 -2.061 -3.7769999999999997 -8.802 1.581 -9.341999999999999 9.2136 -0.9299999999999999 18.720599999999997 -0.873 25.7199 -0.8310000000000001 6.4224 0.039 10.7334 0.066 10.7691 -0.6960000000000001h-0.006c0.0861 -1.773 -4.9017 -1.6830000000000003 -9.942 -1.59 -1.1208 0.018000000000000002 -2.2443 0.039 -3.315 0.039 0 -0.24 -6.1274999999999995 -0.153 -7.356300000000001 -0.135 -0.12029999999999999 0.003 -0.19380000000000003 0.003 -0.2097 0.003 -1.3296 0.015 -1.3068 -0.21299999999999997 -0.9207000000000001 -4.071 0.1617 -1.614 0.387 -3.864 0.6033 -6.9959999999999996 -0.9165 0 -1.8192000000000002 -0.003 -2.7084 -0.003 -0.1824 2.52 -0.3885 5.298 -0.6402 8.361 -0.023399999999999997 0.28200000000000003 -0.09029999999999999 0.5549999999999999 -0.1575 0.8280000000000001 -0.1056 0.43199999999999994 -0.2118 0.8639999999999999 -0.15150000000000002 1.341 0.10500000000000001 0.8250000000000001 -1.9644000000000001 0.792 -4.737299999999999 0.747 -3.2592 -0.05399999999999999 -7.490399999999999 -0.123 -10.3077 1.167 -5.547 2.541 -5.316 11.966999999999999 2.37 13.959 0.2832 0.07500000000000001 0.5514 0.192 0.8199 0.309 0.49169999999999997 0.21299999999999997 0.9843 0.42899999999999994 1.5681000000000003 0.381 0.7938000000000001 -0.063 0.7179 0.246 -0.37979999999999997 4.707 -1.4502 5.889 -4.6833 19.023 -10.0512 48.117000000000004 -0.162 0.873 -0.309 1.785 0.789 2.0669999999999997 1.5171000000000001 0.39 1.5575999999999999 0.195 6.4749 -23.679 1.2086999999999999 -5.868 2.712 -13.164 4.6041 -22.236 1.1240999999999999 -5.391 1.1625 -7.497 2.1654 -8.172 1.6818 -1.137 6.075900000000001 1.7429999999999999 22.8516 -0.126 0.3723 -0.042 0.6396 -0.07500000000000001 0.8502 0.018000000000000002 0.8742 0.387 0.7730999999999999 2.973 3.1517999999999997 16.371 6.1272 34.512 6.3008999999999995 38.439 7.536300000000001 38.808 0.1629 0.048 0.3447 0.036000000000000004 0.5607 0.021 1.7472 -0.10500000000000001 1.0413000000000001 -3.678 0.4437 -6.705 -0.0786 -0.399 -0.15539999999999998 -0.786 -0.22469999999999998 -1.158 -0.009000000000000001 -0.06 -8.033999999999999 -45.825 -8.511000000000001 -46.733999999999995 -0.3216 -0.612 0.5517000000000001 -0.756 2.0265 -0.9990000000000001 1.8135000000000001 -0.30300000000000005 4.5369 -0.753 7.0665000000000004 -2.4090000000000003 4.6668 -3.0569999999999995 5.2782 -9.786 6.130800000000001 -19.169999999999998 0.1665 -1.83 0.342 -3.7589999999999995 0.5583 -5.784Z" clip-rule="evenodd" stroke-width="3"></path>
    </g>
    <g id="table 1">
      <path id="vector" fill="#3849f5" d="M134.583 350.541c-2.3040000000000003 0 -1.4129999999999998 -0.07200000000000001 0.153 18.027 5.9399999999999995 68.562 6.449999999999999 68.37899999999999 4.68 68.664 -1.359 0.21899999999999997 -2.013 -0.789 -2.0490000000000004 -2.085 -0.34500000000000003 -12.299999999999999 -2.214 -24.78 -3 -38.247 -0.195 -3.363 -1.8119999999999998 -1.107 -21.057000000000002 -1.5510000000000002 -5.157 -0.12 -5.85 -0.783 -6.0120000000000005 0.909 0 0.06 -4.035 40.152 -4.062 40.212 -0.921 1.917 -2.5709999999999997 1.0739999999999998 -2.412 -0.5820000000000001 0.798 -8.31 8.124 -81.531 8.073 -83.916 -0.036000000000000004 -1.6800000000000002 -0.012 -1.467 -7.728 -1.6919999999999997 -1.842 -0.05399999999999999 -1.167 -0.6060000000000001 -1.278 -9.831 -0.03 -2.472 220.40699999999998 -2.9699999999999998 220.49099999999999 -2.9699999999999998 2.805 -0.006 3.4139999999999997 -0.6000000000000001 2.9219999999999997 10.892999999999999 -0.084 1.983 -0.41700000000000004 1.722 -10.988999999999999 1.5870000000000002 -1.7639999999999998 -0.024 -1.941 -7.914 5.91 83.03699999999999 0.10200000000000001 1.1760000000000002 -0.177 2.1479999999999997 -1.359 2.163 -1.782 0.021 -1.2000000000000002 -0.8130000000000001 -2.5469999999999997 -16.209 -0.753 -8.600999999999999 -1.899 -20.433 -2.163 -24.482999999999997 -0.171 -2.649 -0.795 -0.8819999999999999 -20.883000000000003 -1.1880000000000002 -5.388 -0.081 -5.8919999999999995 -0.8190000000000001 -6.0600000000000005 0.8250000000000001l-4.050000000000001 39.939c-0.249 2.643 -3.333 1.629 -2.697 -0.273 0.6900000000000001 -2.061 3.168 -28.836 3.7470000000000003 -34.866 5.064 -52.614000000000004 5.58 -48.699 3.582 -48.693000000000005 -110.80799999999999 0.27 -47.751 0.315 -151.215 0.333l0.003 -0.003Zm-10.245000000000001 41.892c9.279 0.12 9.639 0.45599999999999996 9.468 -1.248 -4.095 -40.638 -2.007 -40.662 -4.353 -40.653 -18.044999999999998 0.084 -17.832 -0.6900000000000001 -17.973 1.1880000000000002 -1.125 15.033000000000001 -3.165 34.344 -3.7589999999999995 39.951 -0.249 2.34 0.8130000000000001 0.5549999999999999 16.62 0.759l-0.003 0.003Zm176.244 -2.0669999999999997c10.8 0.162 11.286 0.528 11.112 -1.332 0 -0.06 -2.349 -26.967000000000002 -2.976 -37.497 -0.138 -2.3040000000000003 0.11399999999999999 -1.491 -18.21 -1.521 -1.818 0 -0.8999999999999999 -0.10799999999999998 -4.893 39.987 -0.18 1.7999999999999998 1.1640000000000001 0.156 14.966999999999999 0.363Z" stroke-width="3"></path>
    </g>
    <g id="table 2">
      <path id="vector_2" fill="#3849f5" d="M355.67400000000004 334.824c14.486999999999998 -0.75 134.262 -1.0619999999999998 149.541 -1.284 2.472 -0.036000000000000004 1.434 0.333 1.5990000000000002 11.262 0.021 1.5030000000000001 0.165 1.5 -8.019 1.332 -1.983 -0.042 -1.476 -3.7470000000000003 3.213 51.474000000000004 2.895 34.065 3.618 35.079 1.341 34.896 -1.479 -0.12 -1.1640000000000001 -0.492 -1.884 -8.439 -0.381 -4.199999999999999 -2.598 -28.92 -2.793 -32.163 -0.14400000000000002 -2.412 -0.10799999999999998 -1.416 -17.676000000000002 -1.284 -8.418 0.063 -9.087 -1.0110000000000001 -9.279 0.855 -1.782 17.481 -3.093 27.816000000000003 -4.0200000000000005 39.501 -0.10799999999999998 1.353 -1.206 2.8289999999999997 -2.0789999999999997 1.782 -0.9630000000000001 -1.158 7.007999999999999 -75.89399999999999 7.8870000000000005 -84.6 0.066 -0.651 -0.135 -1.7489999999999999 -0.78 -1.8479999999999999 -3.9749999999999996 -0.618 -21.267000000000003 0.10799999999999998 -90.30000000000001 0.096 -2.382 0 -1.566 -5.133 4.407 67.089 1.506 18.222 2.274 19.302 0.23099999999999998 19.572 -1.932 0.255 -1.254 0.183 -3.7889999999999997 -28.623 -1.2120000000000002 -13.758000000000001 -0.618 -13.566 -2.838 -13.524000000000001 -25.203 0.483 -24.948 -0.867 -25.161 1.296 -4.251 42.945 -3.819 41.714999999999996 -5.529 41.412 -2.952 -0.522 0.21899999999999997 -2.976 3.096 -42.435 2.952 -40.527 6.345000000000001 -44.910000000000004 2.868 -44.835 -7.449 0.165 -7.917 -0.279 -7.857000000000001 -1.365 0.666 -12.354000000000001 -3.5039999999999996 -9.576 7.824 -10.164l-0.003 -0.003Zm16.797 53.456999999999994c9.189 0.123 9.492 0.474 9.315 -1.353 -3.963 -40.563 -2.232 -40.557 -4.293 -40.545 -18.051000000000002 0.096 -17.88 -0.5880000000000001 -18.009 0.9630000000000001 -1.275 15.251999999999999 -2.235 25.166999999999998 -3.7470000000000003 40.26 -0.21899999999999997 2.199 0.498 0.45899999999999996 16.737 0.678l-0.003 -0.003Zm116.41499999999999 -0.5940000000000001c9.069 0.10799999999999998 9.516 0.474 9.321000000000002 -1.401 -4.155 -39.78 -1.77 -40.205999999999996 -4.716 -40.164 -17.658 0.249 -17.475 -0.624 -17.607 1.1400000000000001 -0.8250000000000001 11.244 -1.608 18.500999999999998 -3.7589999999999995 39.963 -0.192 1.908 0.933 0.276 16.761 0.46199999999999997Z" stroke-width="3"></path>
    </g>
    <g id="chair 1">
      <path id="vector_3" fill="#3849f5" d="M44.8497 328.587c21.192 0 18.402 -1.113 21.186 32.967 0.06 0.732 0.405 1.383 0.309 2.169 -0.22199999999999998 1.794 9.831 -0.477 15.044999999999998 1.9140000000000001 5.547 2.541 5.316 11.966999999999999 -2.37 13.959 -0.801 0.20700000000000002 -1.4849999999999999 0.762 -2.388 0.6900000000000001 -1.842 -0.14700000000000002 0.9990000000000001 1.7039999999999997 10.431 52.824 0.162 0.873 0.315 1.782 -0.789 2.0669999999999997 -1.8900000000000001 0.486 -1.4849999999999999 0.07200000000000001 -11.079 -45.915 -3.012 -14.433 1.758 -5.3100000000000005 -25.017000000000003 -8.298 -1.92 -0.21299999999999997 -1.053 -0.237 -4.002000000000001 16.389 -6.936 39.071999999999996 -6.243 38.946 -8.097 38.829 -1.977 -0.126 -0.8130000000000001 -4.683 -0.21899999999999997 -7.8629999999999995 0.012 -0.06 8.036999999999999 -45.825 8.511000000000001 -46.733999999999995 0.714 -1.365 -4.5120000000000005 -0.405 -9.093 -3.4079999999999995 -6.33 -4.149 -5.196 -15.051000000000002 -7.32903 -30.168 -0.738 -5.22 -0.8999999999999999 -10.53 -0.708 -15.831 0.07200000000000001 -1.965 1.20603 -3.042 3.1770300000000002 -3.2969999999999997 3.63 -0.471 12.432 -0.34500000000000003 12.432 -0.28500000000000003v-0.009000000000000001Zm9.954 35.823c0 -0.261 7.389 -0.14100000000000001 7.565999999999999 -0.138 2.406 0.063 0.375 -0.741 -0.20700000000000002 -22.368000000000002 -0.162 -6.005999999999999 -1.557 -10.850999999999999 -7.539 -10.935 -23.271 -0.321 -23.750999999999998 -2.3040000000000003 -22.875 9.273 2.982 39.315 1.959 37.491 22.743000000000002 38.769 5.115 0.315 20.469 -0.039 25.119 -2.187 4.461 -2.0580000000000003 3.7769999999999997 -8.802 -1.581 -9.341999999999999 -17.669999999999998 -1.785 -36.414 0.07200000000000001 -36.489000000000004 -1.521 -0.099 -2.169 7.3709999999999996 -1.5510000000000002 13.256999999999998 -1.5510000000000002h0.006Z" stroke-width="3"></path>
    </g>
    <g id="chair 3">
      <path id="vector_4" fill="#3849f5" d="M568.941 328.896c1.971 0.255 3.1109999999999998 1.32 3.183 3.285 0.195 5.298 0.03 10.602 -0.708 15.831 -2.13 15.116999999999999 -0.9990000000000001 26.022 -7.329000000000001 30.168 -4.587 3.0029999999999997 -9.81 2.043 -9.093 3.4079999999999995 0.477 0.909 8.502 46.674 8.511000000000001 46.733999999999995 0.5940000000000001 3.183 1.758 7.743 -0.21899999999999997 7.8629999999999995 -1.854 0.11399999999999999 -1.161 0.237 -8.097 -38.829 -2.952 -16.625999999999998 -2.085 -16.602 -4.002000000000001 -16.389 -26.778 2.985 -22.008000000000003 -6.135 -25.017000000000003 8.298 -9.591000000000001 45.978 -9.189 46.401 -11.079 45.915 -1.0979999999999999 -0.28200000000000003 -0.9510000000000001 -1.194 -0.789 -2.0669999999999997 9.432 -51.12 12.273 -52.967999999999996 10.431 -52.824 -0.903 0.07200000000000001 -1.5870000000000002 -0.48 -2.388 -0.6900000000000001 -7.686 -1.992 -7.917 -11.418 -2.37 -13.959 5.214 -2.388 15.273 -0.12 15.044999999999998 -1.9140000000000001 -0.099 -0.783 0.249 -1.443 0.309 -2.169 2.7990000000000004 -34.077 -0.012 -32.955 21.18 -32.955 0 -0.06 8.796 -0.186 12.432 0.28500000000000003v0.009000000000000001Zm-9.117 37.053000000000004c-0.07500000000000001 1.593 -18.822 -0.258 -36.489000000000004 1.5270000000000001 -5.3580000000000005 0.54 -6.042 7.281000000000001 -1.581 9.341999999999999 4.65 2.151 20.004 2.502 25.119 2.187 20.784 -1.281 19.764 0.546 22.743000000000002 -38.769 0.879 -11.577 0.393 -9.597 -22.875 -9.273 -5.982 0.084 -7.3740000000000006 4.929 -7.539 10.935 -0.591 21.627 -2.613 22.392000000000003 -0.20700000000000002 22.368000000000002 0.177 0 7.565999999999999 -0.132 7.565999999999999 0.132 5.886 0 13.361999999999998 -0.618 13.256999999999998 1.5510000000000002h0.006Z" stroke-width="3"></path>
    </g>
    <g id="lamp">
      <path id="vector_5" fill="#09122e" d="M424.67099999999994 277.68989999999997c-6.920999999999999 6.042 -9.363 8.493 -16.803 15.129000000000001 -1.32 1.1760000000000002 -0.8220000000000001 0.34500000000000003 -0.63 26.5131 0.033 4.704000000000001 -0.8190000000000001 5.235 0.684 5.757 4.215 1.464 7.395 6.741 3.8609999999999998 6.753 -13.341000000000001 0.045 -14.061 0.333 -14.73 -0.654 -0.879 -1.293 2.88 -5.448 6.207 -6.141 3.678 -0.768 0.255 -3.636 1.431 -31.8951 0.05399999999999999 -1.29 6.12 -5.5200000000000005 22.962 -21.186 3.843 -3.5759999999999996 12.399000000000001 -1.158 16.446 3.267 1.5870000000000002 1.734 1.059 1.464 -9.948 13.280999999999999 -1.302 1.395 -1.7279999999999998 1.419 -3.261 0.237 -3.579 -2.757 -5.649 -6.39 -6.218999999999999 -11.061Zm7.044 9.437999999999999c0.387 0.375 0.612 0.273 0.9450000000000001 -0.084 9.423 -10.068 9.801 -9.681 8.916 -10.503 -10.334999999999999 -9.573 -21.147000000000002 -0.333 -9.861 10.584v0.003Z" stroke-width="3"></path>
    </g>
    <g id="cactus">
      <path id="vector_6" fill="#09122e" d="M365.019 317.874c-0.891 -1.1640000000000001 -1.6320000000000001 -2.4899999999999998 -1.332 -3.8249999999999997 1.2120000000000002 0.255 1.8359999999999999 0.7020000000000001 2.3280000000000003 2.043 0.786 2.139 2.43 1.536 8.796 1.389 3.1020000000000003 -0.07200000000000001 2.628 0.20700000000000002 1.5750000000000002 12.282 -0.255 2.9219999999999997 -0.153 2.472 -11.667 2.4779999999999998 -3.5759999999999996 0 -2.298 -2.4779999999999998 -3.096 -9.348 -0.672 -5.802 -0.34500000000000003 -4.899 3.393 -5.019h0.003Zm0.096 1.866c-3.165 -0.05399999999999999 -2.3040000000000003 -0.018000000000000002 -1.347 9.437999999999999 0.189 1.8780000000000001 1.0859999999999999 0.9810000000000001 9.879000000000001 1.0739999999999998 1.068 0.012 0.573 0.096 1.6560000000000001 -9.741 0.168 -1.5150000000000001 -0.42299999999999993 -0.609 -10.187999999999999 -0.771Z" stroke-width="3"></path>
      <path id="vector_7" fill="#09122e" d="M368.52299999999997 308.418c-2.781 -0.321 -1.9260000000000002 3.492 -3.684 2.019 -0.516 -0.43199999999999994 -1.602 -0.636 -0.753 -1.7039999999999997 2.229 -2.8080000000000003 0.8459999999999999 -2.097 0.23099999999999998 -4.086 -0.42000000000000004 -1.362 0.42599999999999993 -2.37 0.678 -1.947 1.506 2.544 1.389 3.738 5.1899999999999995 3.315 1.0050000000000001 -0.11099999999999999 1.3860000000000001 -0.639 3.315 -2.412 0.621 -0.573 2.0669999999999997 -0.471 1.0379999999999998 0.921 -1.815 2.457 -2.511 2.3040000000000003 -1.5150000000000001 3.987 1.134 1.911 3.1260000000000003 -1.146 3.9029999999999996 0.528 0.792 1.7039999999999997 -3.183 0.8310000000000001 -2.6550000000000002 3.534 0.22499999999999998 1.146 -0.309 4.785 -2.061 4.305 -2.604 -0.708 1.755 -3.282 -1.407 -7.407 -0.5700000000000001 -0.744 -1.302 -1.1760000000000002 -2.2800000000000002 -1.0499999999999998v-0.003Z" stroke-width="3"></path>
      <path id="vector_8" fill="#09122e" d="M363.33 311.421c3.1020000000000003 0.873 3.5759999999999996 0.849 3.5759999999999996 1.5270000000000001 0 1.134 -2.16 0.42599999999999993 -4.353 -0.21899999999999997 -1.014 -0.29700000000000004 -0.921 -1.5750000000000002 0.777 -1.308Z" stroke-width="3"></path>
    </g>
    <g id="cup 1">
      <path id="vector_9" fill="#09122e" d="M137.808 322.578c-3.63 -2.4419999999999997 -22.875 -1.9140000000000001 -22.719 0.618 -0.5880000000000001 11.595 12.456 18.342 20.106 9.324 8.850000000000001 4.0680000000000005 14.34 -9.219 2.613 -9.942Zm-20.796 1.806c4.59 1.314 14.736 1.314 19.329 0 -1.953 12.722999999999999 -17.361 12.807 -19.329 0Zm19.275 6.654c1.1760000000000002 -1.8780000000000001 1.908 -4.128 1.983 -6.6240000000000006 8.115 1.0230000000000001 3.867 8.922 -1.983 6.6240000000000006Z" stroke-width="3"></path>
    </g>
    <g id="cup 2">
      <path id="vector_10" fill="#09122e" d="M166.68900000000002 331.812c7.661999999999999 9.027 20.700000000000003 2.2560000000000002 20.112 -9.324 0.153 -2.559 -19.125 -3.036 -22.725 -0.618 -11.850000000000001 0.738 -6.093 13.941 2.613 9.942Zm-1.134 -8.139c4.59 1.314 14.736 1.314 19.329 0 -1.947 12.693 -17.361 12.825000000000001 -19.329 0Zm-1.929 0.03c0.078 2.496 0.807 4.746 1.983 6.6240000000000006 -5.814 2.286 -10.116 -5.595 -1.983 -6.6240000000000006Z" stroke-width="3"></path>
    </g>
    <g id="book">
      <path id="vector_11" fill="#09122e" d="M305.031 310.422c0 -5.292 1.104 -10.5915 -2.6189999999999998 -10.5915 -33.8463 0 -34.8003 -0.9750000000000001 -34.8003 2.6205000000000003 0 6 -0.006 8.024999999999999 0.012 8.232000000000001 -1.83 0 -4.989 -0.399 -4.989 2.6189999999999998 0 5.436 -1.056 10.59 2.6189999999999998 10.59 2.769 0 2.358 -0.10200000000000001 2.358 0.255 0 5.292 -1.116 10.59 2.6189999999999998 10.59 33.8463 0 34.8003 0.9750000000000001 34.8003 -2.6189999999999998 0 -5.292 1.1099999999999999 -10.59 -2.6189999999999998 -10.59 -2.7693000000000003 0 -2.358 0.10200000000000001 -2.358 -0.255 0 -6 0.006 -8.024999999999999 -0.012 -8.232000000000001 1.83 0 4.989 0.399 4.989 -2.6189999999999998Zm-35.0583 0c0 -8.238 -0.132 -8.232000000000001 0.255 -8.232000000000001 32.4303 0 32.436299999999996 -0.183 32.436299999999996 0.255 0 8.238 0.132 8.232000000000001 -0.255 8.232000000000001 -32.4303 0 -32.436299999999996 0.183 -32.436299999999996 -0.255Zm32.7003 13.722c0 8.238 0.132 8.232000000000001 -0.255 8.232000000000001 -32.4303 0 -32.436299999999996 0.183 -32.436299999999996 -0.255 0 -8.238 -0.132 -8.232000000000001 0.255 -8.232000000000001 32.4303 0 32.436299999999996 -0.183 32.436299999999996 0.255Zm-4.9653 -10.850999999999999c0 8.22 0.126 8.232000000000001 -0.261 8.232000000000001h-32.181c-0.387 0 -0.255 0 -0.255 -8.232000000000001 0 -0.45599999999999996 32.7 -0.43499999999999994 32.7 0h-0.003Z" stroke-width="3"></path>
      <path id="vector_12" fill="#09122e" d="M264.5757 303.57c-0.375 -1.395 -0.726 -1.299 -8.127 -5.5764 -1.254 -0.723 -2.8499999999999996 -0.29700000000000004 -3.5759999999999996 0.9570000000000001 -17.004 29.4264 -16.755 28.3494 -16.352999999999998 29.852399999999996 0.375 1.395 0.723 1.305 8.127 5.577 1.248 0.72 2.8529999999999998 0.29100000000000004 3.5759999999999996 -0.9570000000000001 17.034 -29.409000000000002 16.755 -28.349999999999998 16.352999999999998 -29.853Zm-2.3040000000000003 0.801c-16.101 28.065 -16.086 27.954 -16.245 27.993 -0.159 0.039 -0.045 0.07200000000000001 -7.103999999999999 -4.014 -0.369 -0.21299999999999997 16.032 -28.311 16.149 -28.344 0.10799999999999998 -0.0294 7.443 3.939 7.199999999999999 4.365Z" stroke-width="3"></path>
    </g>
    <g id="ceiling lamp">
      <g id="group">
        <path id="vector_13" fill="#09122e" d="M314.943 220.062c-2.082 0.09 -2.0789999999999997 0.42000000000000004 -2.379 1.353 -3.09 9.639 -14.012699999999999 9.350999999999999 -17.0517 2.832 -1.8119999999999998 -3.885 -0.777 -3.909 -3.9960000000000004 -3.885 -25.938000000000002 0.189 -26.694 0.753 -26.094 -1.806 1.6560000000000001 -7.074 5.223000000000001 -13.038 10.53 -17.961 24.6477 -22.863 64.4157 -4.458 67.23270000000001 17.366999999999997 0.168 1.302 -0.339 1.929 -1.71 1.9140000000000001 -1.6500000000000001 -0.021 -24.281999999999996 0.08700000000000001 -26.529 0.183l-0.003 0.003Zm23.205000000000002 -2.814c3.0569999999999995 -0.192 2.145 -0.636 1.584 -1.773 -15.462 -31.335 -60.10770000000001 -29.25 -71.2647 1.377 -0.339 0.927 -0.849 1.248 1.8780000000000001 1.314 3.5010000000000003 0.084 64.2867 -0.6960000000000001 67.8027 -0.9179999999999999Zm-41.2827 3.021c-2.496 -0.006 1.545 6.699 6.431699999999999 6.747 5.424 0.05399999999999999 9.639 -6.9479999999999995 6.741 -6.872999999999999 -0.741 0.021 -11.867700000000001 0.129 -13.1727 0.126Z" stroke-width="3"></path>
        <path id="vector_14" fill="#09122e" d="M302.79900000000004 187.69559999999998c-1.0739999999999998 -1.6560000000000001 -0.43199999999999994 -73.866 -0.43499999999999994 -73.926 -0.033 -8.553 -0.138 -8.448 1.044 -8.541 1.953 -0.156 1.698 1.17 1.7039999999999997 7.515 0.056999999999999995 64.974 0.9390000000000001 79.96799999999999 -2.316 74.955l0.003 -0.003Z" stroke-width="3"></path>
      </g>
      <g id="group_2">
        <path id="vector_15" fill="#09122e" d="M445.095 220.062c-2.082 0.09 -2.0789999999999997 0.42000000000000004 -2.379 1.353 -3.09 9.639 -14.013000000000002 9.350999999999999 -17.052 2.832 -1.8119999999999998 -3.885 -0.777 -3.909 -3.9960000000000004 -3.885 -25.938000000000002 0.189 -26.694 0.753 -26.094 -1.806 1.6560000000000001 -7.074 5.223000000000001 -13.038 10.53 -17.961 24.647999999999996 -22.863 64.416 -4.458 67.233 17.366999999999997 0.168 1.302 -0.339 1.929 -1.71 1.9140000000000001 -1.6500000000000001 -0.021 -24.281999999999996 0.08700000000000001 -26.529 0.183l-0.003 0.003Zm23.205000000000002 -2.814c3.0569999999999995 -0.192 2.145 -0.636 1.584 -1.773 -15.462 -31.335 -60.108000000000004 -29.25 -71.265 1.377 -0.339 0.927 -0.849 1.248 1.8780000000000001 1.314 3.5010000000000003 0.084 64.28699999999999 -0.6960000000000001 67.803 -0.9179999999999999Zm-41.283 3.021c-2.496 -0.006 1.545 6.699 6.432 6.747 5.424 0.05399999999999999 9.639 -6.9479999999999995 6.741 -6.872999999999999 -0.741 0.021 -11.868 0.129 -13.173 0.126Z" stroke-width="3"></path>
        <path id="vector_16" fill="#09122e" d="M432.951 187.69559999999998c-1.0739999999999998 -1.6560000000000001 -0.43199999999999994 -73.866 -0.43499999999999994 -73.926 -0.033 -8.553 -0.138 -8.448 1.044 -8.541 1.953 -0.156 1.698 1.17 1.7039999999999997 7.515 0.056999999999999995 64.974 0.9390000000000001 79.96799999999999 -2.316 74.955l0.003 -0.003Z" stroke-width="3"></path>
      </g>
      <g id="group_3">
        <path id="vector_17" fill="#09122e" d="M184.089 220.062c-2.082 0.09 -2.0787 0.42000000000000004 -2.3787000000000003 1.353 -3.09 9.639 -14.013000000000002 9.350999999999999 -17.052 2.832 -1.8119999999999998 -3.885 -0.777 -3.909 -3.9960000000000004 -3.885 -25.938000000000002 0.189 -26.6943 0.753 -26.0943 -1.806 1.6560000000000001 -7.074 5.2233 -13.038 10.5303 -17.961 24.647999999999996 -22.863 64.416 -4.458 67.233 17.366999999999997 0.168 1.302 -0.339 1.929 -1.71 1.9140000000000001 -1.6500000000000001 -0.021 -24.2823 0.08700000000000001 -26.5293 0.183l-0.003 0.003Zm23.205000000000002 -2.814c3.0569999999999995 -0.192 2.145 -0.636 1.584 -1.773 -15.462 -31.335 -60.108000000000004 -29.25 -71.265 1.377 -0.339 0.927 -0.8487 1.248 1.8782999999999999 1.314 3.5010000000000003 0.084 64.2867 -0.6960000000000001 67.8027 -0.9179999999999999Zm-41.2827 3.021c-2.496 -0.006 1.5447000000000002 6.699 6.431699999999999 6.747 5.424 0.05399999999999999 9.639299999999999 -6.9479999999999995 6.741300000000001 -6.872999999999999 -0.741 0.021 -11.868 0.129 -13.173 0.126Z" stroke-width="3"></path>
        <path id="vector_18" fill="#09122e" d="M171.9453 187.69559999999998c-1.0739999999999998 -1.6560000000000001 -0.43199999999999994 -73.866 -0.43499999999999994 -73.926 -0.033 -8.553 -0.138 -8.448 1.044 -8.541 1.953 -0.156 1.698 1.17 1.7039999999999997 7.515 0.056999999999999995 64.974 0.9390000000000001 79.96799999999999 -2.316 74.955l0.003 -0.003Z" stroke-width="3"></path>
      </g>
    </g>
    <g id="board">
      <path id="vector_19" fill="#09122e" d="M183.201 244.54410000000001c-100.839 0 -100.785 -1.6260000000000001 -100.785 3.195 0 59.1669 -1.347 60.3609 3.159 60.3609 100.839 0 100.785 1.6260000000000001 100.785 -3.195 0 -59.1669 1.347 -60.3609 -3.159 -60.3609Zm0.9390000000000001 58.1109c0 4.764 0.10200000000000001 3.195 -96.33600000000001 3.195 -4.479 0 -3.159 -1.593 -3.159 -55.8579 0 -4.764 -0.10200000000000001 -3.195 96.33600000000001 -3.195 4.479 0 3.159 1.593 3.159 55.8579Z" stroke-width="3"></path>
      <path id="vector_20" fill="#09122e" d="M105.9003 274.3881c-9.966000000000001 0 -10.803 -0.44099999999999995 -10.803 1.242 0 22.058999999999997 -0.45599999999999996 22.602 1.092 22.602 10.002 0 10.803 0.42299999999999993 10.803 -1.242 0 -22.065 0.45599999999999996 -22.602 -1.092 -22.602Zm-0.387 22.113c0 0.22499999999999998 0 0.14400000000000002 -8.898 0.14400000000000002 -0.06 -0.09 -0.036000000000000004 0 -0.036000000000000004 -20.529 0 -0.22499999999999998 0 -0.14400000000000002 8.898 -0.14400000000000002 0.06 0.09 0.036000000000000004 0 0.036000000000000004 20.529Z" stroke-width="3"></path>
      <path id="vector_21" fill="#09122e" d="M121.84199999999998 263.3931c-9.966000000000001 0 -10.803 -0.44099999999999995 -10.803 1.242 0 33.579 -0.486 33.588 1.092 33.588 10.002 0 10.803 0.42299999999999993 10.803 -1.242 0 -33.579 0.486 -33.588 -1.092 -33.588Zm-0.405 33.108c0 0.22499999999999998 0 0.14400000000000002 -8.898 0.14400000000000002v-31.521c0 -0.22499999999999998 0 -0.14400000000000002 8.898 -0.14400000000000002v31.521Z" stroke-width="3"></path>
      <path id="vector_22" fill="#09122e" d="M137.7783 254.0541c-9.966000000000001 0 -10.803 -0.44399999999999995 -10.803 1.236 0 42.963 -0.5940000000000001 42.939 1.092 42.939 10.002 0 10.803 0.42299999999999993 10.803 -1.242 0 -42.963 0.5940000000000001 -42.933 -1.092 -42.933Zm-0.405 42.446999999999996c0 0.22499999999999998 0 0.14400000000000002 -8.898 0.14400000000000002v-40.866c0 -0.22499999999999998 0 -0.14400000000000002 8.898 -0.14400000000000002v40.866Z" stroke-width="3"></path>
      <path id="vector_23" fill="#09122e" d="M173.34 263.55240000000003c-26.19 0 -26.183999999999997 0.30300000000000005 -26.183999999999997 -0.546 0 -0.897 0.006 -1.236 0.546 -1.236 26.19 0 26.183999999999997 -0.30300000000000005 26.183999999999997 0.546 0 0.897 -0.006 1.236 -0.546 1.236Z" stroke-width="3"></path>
      <path id="vector_24" fill="#09122e" d="M169.776 269.4909c-22.631999999999998 0 -22.62 0.30300000000000005 -22.62 -0.546 0 -0.897 0.006 -1.236 0.546 -1.236 22.631999999999998 0 22.62 -0.30300000000000005 22.62 0.546 0 0.897 -0.006 1.236 -0.546 1.236Z" stroke-width="3"></path>
      <path id="vector_25" fill="#09122e" d="M176.31029999999998 275.4321c-29.151000000000003 0 -29.151000000000003 0.30300000000000005 -29.151000000000003 -0.546 0 -0.897 0.006 -1.236 0.546 -1.236 29.151000000000003 0 29.151000000000003 -0.30300000000000005 29.151000000000003 0.546 0 0.897 -0.006 1.236 -0.546 1.236Z" stroke-width="3"></path>
    </g>
    <g id="laptop">
      <path id="vector_26" fill="#09122e" d="M437.496 330.738c-1.842 0.018000000000000002 -2.019 -0.393 -4.299 -11.583 -3.7110000000000003 -18.189 -4.911 -19.337699999999998 -2.832 -19.1607 1.329 0.11370000000000001 0.024 0.0717 35.253 -2.2800000000000002 2.412 -0.162 1.9980000000000002 0.09 4.959 16.703699999999998 0.528 2.9699999999999998 1.296 5.904 1.4849999999999999 8.928 0.078 1.236 0.705 0.11399999999999999 15.419999999999998 1.092 1.347 0.09 1.131 0.78 1.4129999999999998 1.995 1.161 5.01 2.769 3.81 -51.396 4.305h-0.003Zm15.456 -12.93c-5.001 -3.117 0.9930000000000001 -4.247999999999999 -1.224 -5.268 -4.050000000000001 -1.863 -7.038 3.7829999999999995 -3.5999999999999996 6.087 1.338 0.897 3.69 1.044 4.824 -0.8190000000000001Zm-3.7829999999999995 -8.802c-0.024 2.91 3.537 -0.5700000000000001 3.588 -2.541 0.05399999999999999 -2.097 -3.564 -0.672 -3.588 2.541Z" stroke-width="3"></path>
    </g>
  </g>
</svg>