<?xml version="1.0" encoding="UTF-8"?>
<svg id="Livello_2" data-name="Livello 2" xmlns="http://www.w3.org/2000/svg" viewBox="0 0 407.8143 106.7685">
  <defs>
    <style>
      .cls-1 {
        fill: #8af;
      }

      .cls-2 {
        fill: #3849f5;
      }
    </style>
  </defs>
  <g id="Livello_1-2" data-name="Livello 1">
    <g>
      <path class="cls-2" d="M165.8322,27.4579c-4.3343-2.4503-9.1326-3.6763-14.3956-3.6763-5.212,0-9.9837,1.226-14.3175,3.6763-4.3343,2.451-7.7396,5.8045-10.2163,10.0608-2.4764,4.2567-3.7149,8.9659-3.7149,14.1247s1.2385,9.8674,3.7149,14.1242c2.4767,4.2568,5.882,7.6115,10.2163,10.0613,4.3337,2.4509,9.1054,3.6764,14.3175,3.6764,5.2629,0,10.0613-1.2255,14.3956-3.6764,4.3337-2.4498,7.7393-5.8045,10.2157-10.0613,2.477-4.2568,3.7152-8.9642,3.7152-14.1242s-1.2382-9.868-3.7152-14.1247c-2.4764-4.2562-5.882-7.6098-10.2157-10.0608ZM168.3861,61.7815c-1.7028,3.0452-4.038,5.4447-7.0039,7.1978-2.9676,1.7549-6.257,2.6314-9.868,2.6314-3.6643,0-6.9785-.8765-9.945-2.6314-2.9677-1.7532-5.3017-4.1527-7.0045-7.1978-1.7022-3.0434-2.5539-6.4236-2.5539-10.1382s.8517-7.0936,2.5539-10.1388c1.7028-3.0434,4.0502-5.4429,7.0433-7.1977,2.9914-1.7532,6.294-2.6309,9.9062-2.6309s6.9004.8777,9.868,2.6309c2.9659,1.7549,5.3011,4.1544,7.0039,7.1977,1.7028,3.0452,2.5539,6.4237,2.5539,10.1388s-.8511,7.0948-2.5539,10.1382Z"/>
      <path class="cls-2" d="M243.3031,44.9199c-1.2395-1.5288-2.7071-2.8254-4.4118-3.8793-2.838-1.7538-6.0632-2.6316-9.6742-2.6316s-6.9143.8899-9.9062,2.6698c-2.9931,1.7803-5.3399,4.2058-7.0427,7.2752-1.7028,3.0701-2.5539,6.489-2.5539,10.2546,0,3.7151.8511,7.108,2.5539,10.1775,1.7028,3.0701,4.0496,5.4828,7.0427,7.2359,2.992,1.7549,6.294,2.6315,9.9062,2.6315s6.8362-.8766,9.6742-2.6315c1.7047-1.0532,3.1723-2.3446,4.4118-3.8643v2.3166c0,2.477-.5803,4.708-1.7416,6.6944-1.1607,1.9857-2.7084,3.5468-4.6433,4.6825-1.9348,1.1341-4.0901,1.7029-6.4623,1.7029-2.5291,0-4.7735-.6579-6.7338-1.9736-1.9614-1.3157-3.4826-3.1094-4.5663-5.3792l-7.2747,3.6377c1.7028,3.3535,4.1792,6.0486,7.4298,8.0876,3.2506,2.0378,6.9652,3.0573,11.145,3.0573,3.92,0,7.468-.9031,10.6416-2.709,3.173-1.8064,5.6882-4.2701,7.5455-7.391,1.8579-3.1221,2.7866-6.5909,2.7866-10.4096v-35.2917h-8.1264v5.7373ZM241.639,64.9934c-1.1104,1.9348-2.6193,3.4576-4.5275,4.5663-1.9094,1.1103-4.0514,1.6641-6.4236,1.6641-2.374,0-4.5154-.5537-6.4236-1.6641-1.9094-1.1087-3.4189-2.6315-4.5275-4.5663-1.1103-1.9348-1.6641-4.0884-1.6641-6.4624,0-2.3213.5537-4.45,1.6641-6.3849,1.1086-1.9348,2.6181-3.4559,4.5275-4.5663,1.9082-1.1086,4.0496-1.6641,6.4236-1.6641,2.3723,0,4.5142.5422,6.4236,1.6253,1.9082,1.0837,3.4172,2.5928,4.5275,4.5275,1.1086,1.9348,1.664,4.0902,1.664,6.4624,0,2.374-.5555,4.5275-1.664,6.4624Z"/>
      <polygon class="cls-2" points="308.6228 24.5557 305.9914 24.5557 288.2748 66.8959 270.6222 24.5557 267.5267 24.5557 262.1862 24.5557 259.4003 24.5557 259.4003 78.731 267.5267 78.731 267.5267 37.4463 284.6307 78.731 291.5189 78.731 308.6228 37.4452 308.6228 78.731 316.6717 78.731 316.6717 24.5557 313.9627 24.5557 308.6228 24.5557"/>
      <polygon class="cls-2" points="341.0501 70.7415 328.8217 39.1826 320.0762 39.1826 336.6386 79.7372 330.679 94.2097 338.9605 94.2097 361.5594 39.1826 353.2785 39.1826 341.0501 70.7415"/>
      <path class="cls-2" d="M49.1451,98.0803l-32.0345-18.3514v10.3131l26.7809,15.3266c3.2615,1.8665,7.2675,1.8663,10.5288-.0006l27.1276-15.5293v-10.3491l-8.1962,4.7232-24.2066,13.8674Z"/>
      <path class="cls-1" d="M.1395,29.4978l-.1395,42.7503,8.9425,5.1634.1428-48.8374L49.3263,5.1524,40.3509.033,5.4058,20.3735C2.1559,22.2652.1518,25.7374.1395,29.4978Z"/>
      <path class="cls-1" d="M58.2523,0l-8.926,5.1524,40.1641,23.3722.0879.044.1373,48.8539,8.9424-5.1744-.1443-42.7517c-.0127-3.7597-2.0164-7.2312-5.2656-9.1228L58.2523,0Z"/>
      <path class="cls-2" d="M76.1389,51.2268c0-14.7814-12.024-26.8054-26.8054-26.8054s-26.8109,12.024-26.8109,26.8054,12.024,26.8054,26.8109,26.8054,26.8054-12.0238,26.8054-26.8054ZM31.2289,51.2268c0-9.9806,8.1185-18.0991,18.1046-18.0991,9.9806,0,18.0992,8.1185,18.0992,18.0991s-8.1185,18.0992-18.0992,18.0992c-9.9861,0-18.1046-8.1186-18.1046-18.0992Z"/>
      <path class="cls-2" d="M209.7137,39.1827h-12.1075c-6.3072,0-11.4201,5.113-11.4201,11.4201v28.1282h8.1264v-32.1185h15.4012v-7.4298Z"/>
      <path class="cls-2" d="M373.3731,39.1826h-9.3201l3.4107,5.0304,10.0139,14.8568-13.2518,19.6611h9.2941l8.0784-11.9974c3.1111-4.6204,3.1107-10.7203-.001-15.3402l-8.2243-12.2107Z"/>
      <path class="cls-2" d="M398.4942,78.731h9.3201l-3.4107-5.0304-10.0139-14.8568,13.2518-19.6611h-9.2941l-8.0784,11.9974c-3.1111,4.6204-3.1107,10.7203.001,15.3402l8.2243,12.2107Z"/>
    </g>
  </g>
</svg>