<?xml version="1.0" encoding="UTF-8"?>
<svg id="Livello_2" data-name="Livello 2" xmlns="http://www.w3.org/2000/svg" viewBox="0 0 397.3263 104.0226">
  <defs>
    <style>
      .cls-1, .cls-2 {
        fill: #fff;
      }

      .cls-2 {
        opacity: .55;
      }
    </style>
  </defs>
  <g id="Livello_1-2" data-name="Livello 1">
    <g>
      <path class="cls-1" d="M161.5674,26.7517c-4.2228-2.3873-8.8978-3.5818-14.0253-3.5818-5.078,0-9.727,1.1945-13.9492,3.5818-4.2228,2.388-7.5406,5.6553-9.9536,9.802-2.4127,4.1472-3.6194,8.7353-3.6194,13.7614s1.2066,9.6137,3.6194,13.7609c2.413,4.1473,5.7308,7.4157,9.9536,9.8025,4.2223,2.3879,8.8713,3.5819,13.9492,3.5819,5.1276,0,9.8025-1.194,14.0253-3.5819,4.2223-2.3868,7.5403-5.6553,9.953-9.8025,2.4133-4.1473,3.6196-8.7337,3.6196-13.7609s-1.2064-9.6142-3.6196-13.7614c-2.4127-4.1468-5.7308-7.4141-9.953-9.802ZM164.0556,60.1927c-1.659,2.9668-3.9342,5.3046-6.8238,7.0127-2.8913,1.7097-6.096,2.5637-9.6142,2.5637-3.5701,0-6.799-.854-9.6892-2.5637-2.8913-1.7081-5.1654-4.0459-6.8244-7.0127-1.6584-2.9651-2.4883-6.2584-2.4883-9.8775s.8298-6.9112,2.4883-9.878c1.659-2.9651,3.946-5.3029,6.8622-7.0126,2.9144-1.7081,6.1321-2.5632,9.6514-2.5632s6.7229.8552,9.6142,2.5632c2.8896,1.7097,5.1648,4.0475,6.8238,7.0126,1.659,2.9668,2.4883,6.2585,2.4883,9.878s-.8292,6.9124-2.4883,9.8775Z"/>
      <path class="cls-1" d="M237.0459,43.7647c-1.2076-1.4895-2.6374-2.7527-4.2983-3.7796-2.765-1.7087-5.9072-2.5639-9.4254-2.5639s-6.7364.867-9.6514,2.6011c-2.9161,1.7345-5.2026,4.0976-6.8616,7.0881-1.659,2.9911-2.4883,6.3221-2.4883,9.9908,0,3.6196.8292,6.9252,2.4883,9.9158,1.659,2.9911,3.9455,5.3418,6.8616,7.0498,2.915,1.7097,6.1321,2.5638,9.6514,2.5638s6.6603-.8541,9.4254-2.5638c1.6609-1.0262,3.0907-2.2843,4.2983-3.7649v2.257c0,2.4133-.5654,4.587-1.6968,6.5222-1.1308,1.9347-2.6388,3.4556-4.5239,4.5621-1.8851,1.1049-3.9849,1.6591-6.2961,1.6591-2.464,0-4.6507-.6409-6.5606-1.9229-1.911-1.2819-3.393-3.0294-4.4489-5.2408l-7.0876,3.5441c1.659,3.2673,4.0717,5.8931,7.2387,7.8796,3.167,1.9854,6.7861,2.9787,10.8584,2.9787,3.8192,0,7.2759-.8799,10.3679-2.6393,3.0914-1.76,5.5419-4.1602,7.3515-7.2009,1.8101-3.0418,2.7149-6.4214,2.7149-10.1419v-34.3841h-7.9175v5.5897ZM235.4247,63.3219c-1.0818,1.8851-2.552,3.3687-4.4111,4.4489-1.8603,1.0818-3.9472,1.6213-6.2584,1.6213-2.3129,0-4.3993-.5395-6.2584-1.6213-1.8603-1.0802-3.331-2.5638-4.4111-4.4489-1.0818-1.8851-1.6213-3.9832-1.6213-6.2962,0-2.2616.5395-4.3356,1.6213-6.2207,1.0801-1.8851,2.5508-3.3671,4.4111-4.4488,1.8591-1.0801,3.9455-1.6213,6.2584-1.6213,2.3113,0,4.3981.5282,6.2584,1.5835,1.8591,1.0558,3.3293,2.5261,4.4111,4.4111,1.0801,1.8851,1.6212,3.985,1.6212,6.2962,0,2.313-.5412,4.4111-1.6212,6.2962Z"/>
      <polygon class="cls-1" points="300.6858 23.9242 298.122 23.9242 280.861 65.1755 263.6624 23.9242 260.6465 23.9242 255.4434 23.9242 252.7291 23.9242 252.7291 76.7062 260.6465 76.7062 260.6465 36.4832 277.3107 76.7062 284.0217 76.7062 300.6858 36.4822 300.6858 76.7062 308.5277 76.7062 308.5277 23.9242 305.8884 23.9242 300.6858 23.9242"/>
      <polygon class="cls-1" points="332.2792 68.9222 320.3652 38.1749 311.8446 38.1749 327.9811 77.6866 322.1748 91.7869 330.2433 91.7869 352.261 38.1749 344.1931 38.1749 332.2792 68.9222"/>
      <path class="cls-1" d="M47.8812,95.5579l-31.2107-17.8794v10.0479l26.0922,14.9325c3.1776,1.8185,7.0806,1.8183,10.258-.0006l26.4299-15.1299v-10.0829l-7.9854,4.6017-23.5841,13.5108Z"/>
      <path class="cls-2" d="M.1359,28.7392l-.1359,41.6509,8.7125,5.0306.1391-47.5815L48.0577,5.0199,39.3131.0321,5.2668,19.8495C2.1004,21.6926.1479,25.0755.1359,28.7392Z"/>
      <path class="cls-2" d="M56.7541,0l-8.6964,5.0199,39.1312,22.7712.0856.0429.1338,47.5975,8.7124-5.0413-.1406-41.6522c-.0124-3.663-1.9646-7.0452-5.1302-8.8881L56.7541,0Z"/>
      <path class="cls-1" d="M74.1808,49.9094c0-14.4012-11.7147-26.116-26.116-26.116s-26.1213,11.7148-26.1213,26.116,11.7147,26.116,26.1213,26.116,26.116-11.7146,26.116-26.116ZM30.4258,49.9094c0-9.7239,7.9097-17.6336,17.639-17.6336,9.724,0,17.6337,7.9097,17.6337,17.6336s-7.9097,17.6337-17.6337,17.6337c-9.7293,0-17.639-7.9098-17.639-17.6337Z"/>
      <path class="cls-1" d="M204.3203,38.175h-11.7961c-6.1449,0-11.1264,4.9815-11.1264,11.1264v27.4048h7.9174v-31.2925h15.0051v-7.2387Z"/>
      <path class="cls-1" d="M363.7709,38.1749h-9.0804l3.323,4.901,9.7564,14.4747-12.911,19.1555h9.0551l7.8707-11.6889c3.0311-4.5015,3.0307-10.4446-.0009-14.9457l-8.0128-11.8967Z"/>
      <path class="cls-1" d="M388.2459,76.7062h9.0804l-3.323-4.901-9.7564-14.4747,12.911-19.1555h-9.0551l-7.8707,11.6889c-3.0311,4.5015-3.0307,10.4446.0009,14.9457l8.0128,11.8967Z"/>
    </g>
  </g>
</svg>