<?xml version="1.0" encoding="UTF-8"?>
<svg id="Livello_2" data-name="Livello 2" xmlns="http://www.w3.org/2000/svg" viewBox="0 0 99.7816 107.9844">
  <defs>
    <style>
      .cls-1, .cls-2 {
        fill: #fff;
      }

      .cls-2 {
        opacity: .55;
      }
    </style>
  </defs>
  <g id="Livello_1-2" data-name="Livello 1">
    <g>
      <path class="cls-1" d="M49.7048,99.1973l-32.3994-18.5604v10.4306l27.0859,15.5012c3.2986,1.8878,7.3503,1.8876,10.6487-.0006l27.4365-15.7062v-10.4669l-8.2895,4.777-24.4823,14.0254Z"/>
      <path class="cls-2" d="M.1411,29.8338l-.1411,43.2372,9.0443,5.2222.1444-49.3936L49.888,5.2111,40.8104.0334,5.4674,20.6055C2.1804,22.5187.1535,26.0306.1411,29.8338Z"/>
      <path class="cls-2" d="M58.9157,0l-9.0276,5.2111,40.6215,23.6384.0889.0445.1389,49.4103,9.0442-5.2333-.1459-43.2386c-.0128-3.8025-2.0394-7.3135-5.3256-9.2267L58.9157,0Z"/>
      <path class="cls-1" d="M77.0061,51.8102c0-14.9497-12.1609-27.1106-27.1107-27.1106s-27.1162,12.1609-27.1162,27.1106,12.1609,27.1106,27.1162,27.1106,27.1107-12.1608,27.1107-27.1106ZM31.5846,51.8102c0-10.0943,8.211-18.3052,18.3108-18.3052,10.0943,0,18.3053,8.211,18.3053,18.3052s-8.211,18.3053-18.3053,18.3053c-10.0998,0-18.3108-8.211-18.3108-18.3053Z"/>
    </g>
  </g>
</svg>